<?xml version="1.0" encoding="UTF-8" standalone="no"?>
<!-- Created with Inkscape (http://www.inkscape.org/) -->

<svg
   version="1.1"
   id="svg341"
   width="331.40591"
   height="506.96072"
   viewBox="0 0 331.40592 506.96072"
   sodipodi:docname="m2c.svg"
   inkscape:version="1.2.2 (732a01da63, 2022-12-09, custom)"
   xmlns:inkscape="http://www.inkscape.org/namespaces/inkscape"
   xmlns:sodipodi="http://sodipodi.sourceforge.net/DTD/sodipodi-0.dtd"
   xmlns="http://www.w3.org/2000/svg"
   xmlns:svg="http://www.w3.org/2000/svg">
  <defs
     id="defs345" />
  <sodipodi:namedview
     id="namedview343"
     pagecolor="#ffffff"
     bordercolor="#000000"
     borderopacity="0.25"
     inkscape:showpageshadow="2"
     inkscape:pageopacity="0.0"
     inkscape:pagecheckerboard="0"
     inkscape:deskcolor="#d1d1d1"
     showgrid="false"
     inkscape:zoom="1.294586"
     inkscape:cx="151.39975"
     inkscape:cy="250.65928"
     inkscape:window-width="1846"
     inkscape:window-height="1016"
     inkscape:window-x="0"
     inkscape:window-y="0"
     inkscape:window-maximized="1"
     inkscape:current-layer="layer2" />
  <g
     inkscape:groupmode="layer"
     id="layer2"
     inkscape:label="Layer 2">
    <path
       style="fill:#aa4400;stroke-width:1.33333"
       d="m 75.94051,496.14859 c 0.0868,-2.01667 0.1004,-4.07591 0.0301,-4.57609 -0.0703,-0.50019 0.76677,-3.05019 1.86,-5.66667 1.64978,-3.94849 2.66468,-4.75724 5.96981,-4.75724 3.25471,0 3.97348,0.548 3.93485,3 -0.026,1.65 -0.90472,4.5 -1.95274,6.33333 -1.04803,1.83334 -1.92678,4.61771 -1.95275,6.1875 -0.0433,2.61572 0.67675,2.86501 8.61941,2.98417 l 8.66667,0.13 v -5.31751 c 5e-5,-4.7067 0.36336,-5.31749 3.16297,-5.31749 2.66135,0 3.29876,0.84947 4.0195,5.35668 l 0.85657,5.35669 7.3048,-0.35669 7.30481,-0.35668 0.009,-9.66667 0.009,-9.66666 h 4 4 v 8.82993 c 0,6.8763 0.36875,8.53902 1.66667,7.51508 1.66408,-1.31282 4.18729,-1.73434 10.16954,-1.69891 3.00554,0.0179 3.12844,-0.30893 2.37502,-6.31367 -0.437,-3.48282 -1.38095,-11.13242 -2.09767,-16.99909 -0.71671,-5.86667 -1.33547,-19.52793 -1.375,-30.35837 -0.0644,-17.64542 0.27408,-20.69363 3.25748,-29.33334 2.14028,-6.19809 4.76691,-10.95118 7.35437,-13.30829 3.86134,-3.51759 4.60123,-3.66667 18.19749,-3.66667 13.16496,0 14.58511,0.26067 19.97658,3.66667 3.19225,2.01667 5.80517,4.15208 5.80648,4.74536 0.001,0.59328 0.56093,0.73349 1.24358,0.31159 0.68267,-0.42192 1.60188,-0.18354 2.04271,0.52973 0.44081,0.71328 1.66924,0.96387 2.72983,0.55689 3.1217,-1.19792 9.98626,6.65255 9.98626,11.42054 0,2.2564 0.38323,4.10256 0.8516,4.10256 0.46839,0 5.85636,-2.4 11.9733,-5.33334 6.11763,-2.93333 11.7344,-5.33333 12.48243,-5.33333 0.74802,0 1.36005,-0.6 1.36005,-1.33333 0,-0.73334 0.83581,-1.33334 1.85735,-1.33334 1.02154,0 2.23566,-0.98588 2.69805,-2.19084 0.46239,-1.20496 1.22276,-1.80877 1.68972,-1.34181 0.46697,0.46696 1.68687,-0.34716 2.71089,-1.80916 1.02403,-1.462 2.72784,-2.65819 3.78626,-2.65819 1.05842,0 1.7744,-0.45 1.59106,-1 -0.18333,-0.55 0.99378,-2.3271 2.61579,-3.94912 l 2.94913,-2.94913 0.83959,4.47539 c 0.46177,2.46148 0.18589,5.69685 -0.61308,7.18973 -2.02801,3.7894 -9.12397,8.597 -10.98833,7.44476 -0.9037,-0.5585 -1.19048,-0.3778 -0.68876,0.434 1.07416,1.73803 -5.8619,6.96394 -13.781,10.38318 -3.3,1.42484 -6.74383,3.30222 -7.65295,4.17194 -0.90913,0.86974 -3.45225,1.97652 -5.65139,2.45954 -2.19913,0.48301 -4.3407,1.43204 -4.75906,2.10897 -0.41836,0.67689 -1.65422,1.23074 -2.74636,1.23074 -1.84524,0 -4.34744,1.12871 -17.52358,7.90462 -2.75,1.41421 -8.83774,6.46888 -13.52832,11.23261 l -8.52832,8.66133 5.52832,-0.7415 c 5.25764,-0.7052 5.52832,-0.57138 5.52832,2.73314 0,4.11155 -6.46346,8.14774 -11.50444,7.1841 -2.82013,-0.53911 -3.16222,-0.1196 -3.16222,3.87726 0,4.14912 1.86566,6.19424 2.88889,3.16675 0.24444,-0.72325 3.3428,-1.71145 6.88524,-2.19596 l 6.44081,-0.88094 -0.44081,3.72815 c -0.24244,2.05048 -1.3408,4.16912 -2.4408,4.70811 -7.25285,3.55376 -9.38807,4.21996 -11.24339,3.50801 -2.76458,-1.06086 -2.6363,-8.8e-4 0.47922,3.95987 1.98324,2.52128 2.81945,2.86015 3.66666,1.48589 0.60363,-0.97914 3.79751,-2.61804 7.09751,-3.64198 3.3,-1.02395 7.18351,-2.64796 8.63001,-3.60892 1.4465,-0.96096 4.33635,-1.7472 6.4219,-1.7472 3.34998,0 3.74272,0.4273 3.36998,3.66666 -0.32802,2.85084 -1.68272,4.23662 -6.08856,6.22826 -3.11666,1.40886 -5.66666,2.94544 -5.66666,3.4146 0,1.8015 13.03008,3.8366 20.66666,3.22781 21.26538,-1.69525 37.67055,-6.74426 45.43226,-13.98262 1.52106,-1.4185 3.26726,-2.12363 3.88042,-1.56692 0.61318,0.5567 0.68636,0.26722 0.16264,-0.64329 -0.54614,-0.9495 0.35774,-2.96544 2.11956,-4.72726 1.68948,-1.68948 3.07179,-4.24451 3.07179,-5.67784 0,-1.43334 1.35,-3.19835 3,-3.92224 1.65,-0.7239 3,-2.34408 3,-3.60042 0,-1.25633 0.75,-2.76405 1.66666,-3.35049 0.91667,-0.58644 1.66667,-1.96625 1.66667,-3.06625 0,-1.1 0.7946,-1.83514 1.76577,-1.63363 0.97118,0.20149 1.38576,-0.24851 0.92131,-1 -0.46505,-0.75151 -0.17424,-1.36637 0.64565,-1.36637 0.8199,0 1.11727,-0.60424 0.66084,-1.34275 -0.45641,-0.73852 0.10467,-1.70139 1.24699,-2.13972 1.14228,-0.43832 1.72152,-1.37189 1.28724,-2.0746 -0.43429,-0.70269 0.28633,-2.46656 1.60139,-3.91968 1.31506,-1.45312 2.5662,-3.78992 2.7803,-5.19287 0.70678,-4.63122 7.34866,-19.99705 8.64372,-19.99705 0.69863,0 0.88318,-0.62628 0.4101,-1.39173 -0.47308,-0.76547 -0.1723,-2.22056 0.66841,-3.23355 0.84071,-1.013 2.36049,-8.96384 3.37731,-17.66855 1.01681,-8.7047 2.47152,-17.46474 3.23268,-19.46676 3.38098,-8.89268 4.29366,-21.23569 2.2329,-30.19766 -1.10136,-4.78963 -2.3536,-18.90842 -2.78278,-31.37508 -0.96059,-27.90298 -1.26176,-30.74924 -3.9106,-36.95718 -3.27348,-7.67186 -2.82946,-10.37616 1.70369,-10.37616 3.27977,0 4.11055,0.79994 5.88511,5.66667 3.03777,8.33103 5.13205,25.79875 4.95652,41.34076 -0.0848,7.51259 -0.11814,15.40924 -0.074,17.54813 0.14492,7.02451 2.06169,2.08878 2.97686,-7.66546 1.75668,-18.72346 3.70611,-34.37464 4.42675,-35.54066 0.40247,-0.65121 1.34752,-13.07124 2.10012,-27.60006 0.75256,-14.52882 1.87365,-32.41604 2.49128,-39.74938 0.85864,-10.1949 0.69439,-14.5887 -0.69783,-18.66666 -1.00144,-2.93334 -2.1984,-10.73334 -2.6599,-17.33334 -0.46152,-6.6 -1.62331,-15 -2.58176,-18.66666 -0.95844,-3.66667 -2.0872,-10.88787 -2.50835,-16.04711 -0.42288,-5.18039 -1.96747,-11.86773 -3.44969,-14.93559 -1.47618,-3.05533 -2.68396,-6.36008 -2.68396,-7.34388 0,-5.08097 -8.50882,-31.057605 -12.34018,-37.673425 -0.84937,-1.46667 -3.15053,-5.71807 -5.11369,-9.44756 -4.69057,-8.91088 -9.30777,-15.72378 -16.22307,-23.93789 -3.11102,-3.69532 -6.85639,-8.42496 -8.32306,-10.51031 -8.57101,-12.186502 -19.31077,-19.972165 -42,-30.447395 -5.53381,-2.554868 -12.21073,-3.947367 -27.20949,-5.674654 -17.22418,-1.983568 -22.47226,-2.076237 -39.33335,-0.694533 -10.70144,0.876944 -22.15717,2.175963 -25.45717,2.886709 -3.3,0.710747 -12.61585,2.677492 -20.70189,4.370546 -8.08604,1.693053 -16.60624,4.063057 -18.93379,5.266677 -2.32755,1.203619 -5.34169,2.188399 -6.69811,2.188399 -1.35641,0 -3.03621,0.503834 -3.73288,1.119632 -0.69666,0.615798 -3.36666,1.914614 -5.93333,2.88626 -2.56667,0.971644 -5.60612,2.560758 -6.75433,3.531364 -1.14823,0.970606 -4.00059,1.974154 -6.3386,2.230109 -2.338,0.255953 -4.69855,0.9592 -5.24566,1.562769 -0.5471,0.60357 -0.24474,0.665795 0.67192,0.138276 0.91667,-0.527517 1.66667,-0.644822 1.66667,-0.260678 0,0.384145 -1.2724,1.379419 -2.82757,2.211709 -2.29047,1.22582 -2.62175,1.17142 -1.74406,-0.28642 0.89603,-1.488283 0.69571,-1.485159 -1.15774,0.0181 -1.2327,0.99976 -1.85516,2.44247 -1.38327,3.20601 0.47189,0.76355 0.25711,1.0169 -0.47732,0.56301 -0.73441,-0.4539 -3.07712,1.04619 -5.20601,3.33353 -2.12888,2.28735 -3.1207,3.7306 -2.20403,3.20724 2.87867,-1.64356 1.90203,0.21718 -6.81617,12.98636 -4.66558,6.83346 -9.53976,15.67835 -10.83154,19.65529 -1.29177,3.97696 -3.40748,9.33083 -4.70157,11.8975 -5.02554,9.967495 -10.07285,33.614975 -12.78379,59.894185 -2.01243,19.50803 -2.08509,26.48312 -0.66661,64 0.87559,23.1582 2.15999,57.70582 2.85422,76.77248 0.69424,19.06667 1.6606,35.56667 2.14748,36.66667 0.48688,1.1 0.7643,2.75 0.61649,3.66667 -0.14781,0.91666 0.36899,1.66666 1.14844,1.66666 0.86715,0 1.07311,1.37091 0.53066,3.5322 -0.663,2.64163 -0.4653,3.27188 0.78411,2.4997 1.22366,-0.75626 1.43002,-0.27438 0.77128,1.80113 -0.56853,1.79125 -0.32335,2.83364 0.66647,2.83364 0.87244,0 1.21153,0.92331 0.76574,2.08501 -1.17612,3.06492 8.05034,41.91499 9.95434,41.91499 0.62888,0 0.79806,0.9 0.37596,2 -0.42452,1.10625 -0.0384,2 0.86401,2 1.04753,0 1.33613,-1.07379 0.80629,-3 -1.87144,-6.80359 -6.13793,-29.24391 -8.04868,-42.33333 -7.2398,-49.59559 -8.69187,-131.75235 -2.94573,-166.66667 1.02587,-6.23333 1.57219,-11.82763 1.21405,-12.43176 -0.35814,-0.60415 0.50399,-0.37704 1.91584,0.50468 2.40811,1.50389 2.44651,1.96912 0.62039,7.51605 -1.58539,4.81571 -1.64939,6.90498 -0.34485,11.25914 1.18466,3.95405 1.21312,5.81449 0.1092,7.14456 -1.11036,1.3379 -1.04616,2.52685 0.2507,4.64349 1.48111,2.41733 1.42394,3.02677 -0.38026,4.05329 -1.82936,1.04084 -2.16134,5.32444 -2.39671,30.92603 -0.61331,66.71139 8.09843,142.32763 20.34657,176.60432 7.27066,20.34707 21.41535,55.80869 22.42651,56.22464 2.02607,0.83344 1.08687,9.64921 -1.58623,14.88889 -1.46666,2.87491 -2.66666,6.61766 -2.66666,8.31723 0,4.87975 5.2555,8.46216 13,8.86144 2.38664,0.12307 3.03228,-0.595 3.15789,-3.512 z"
       id="path395" />
    <path
       style="fill:#aa4400;stroke-width:1.33333"
       d="m 57.42491,464.98173 c -0.19673,-1.92511 -2.43098,-8.2251 -4.96501,-14 -3.89833,-8.88406 -4.61269,-9.84762 -4.64229,-6.2617 -0.0192,2.33096 -0.91416,5.03096 -1.98872,6 -10.11731,9.12396 -10.81436,11.28485 -5.04627,15.64355 2.77139,2.09421 5.29445,2.6911 10.33333,2.44454 6.32779,-0.30961 6.64848,-0.50411 6.30896,-3.82639 z"
       id="path461" />
    <path
       style="fill:#ffff00;stroke-width:1.33333"
       d="m 125.68738,189.72003 c 2.7744,-2.77441 2.64335,-4.99543 -0.46051,-7.8044 -5.03949,-4.56067 -11.33992,3.47063 -6.51092,8.29963 2.17302,2.17301 4.46608,2.01012 6.97143,-0.49523 z"
       id="path423" />
    <path
       style="fill:#ffff00;stroke-width:1.33333"
       d="m 199.55607,187.29327 c 0.70823,-6.20419 -6.84012,-8.84393 -8.99219,-3.14468 -1.67813,4.44417 0.64979,7.91294 4.9751,7.41325 2.83342,-0.32733 3.66846,-1.21465 4.01709,-4.26857 z"
       id="path427" />
    <path
       style="fill:#000000;stroke-width:1.33333"
       d="m 32.29137,396.41267 c 0.45532,-1.18656 0.2318,-1.72176 -0.52402,-1.25464 -0.72493,0.44803 -1.31806,1.3792 -1.31806,2.06925 0,1.91791 0.95569,1.49528 1.84208,-0.81461 z"
       id="path463" />
  </g>
  <g
     inkscape:groupmode="layer"
     id="layer1"
     inkscape:label="Layer 1">
    <path
       style="fill:#000000;stroke-width:1.33333"
       d="m 165.75902,570.32199 c -1.19361,-0.66799 -1.76489,-1.87035 -1.26949,-2.67192 0.53998,-0.87372 0.28421,-1.07638 -0.63863,-0.50603 -0.84664,0.52325 -1.53935,0.21596 -1.53935,-0.68288 0,-0.89884 -0.36673,-1.26752 -0.81496,-0.81929 -1.3259,1.32592 -7.18504,-6.50726 -7.18504,-9.6058 0,-1.5677 0.86391,-4.91799 1.9198,-7.44508 2.20015,-5.26571 2.13188,-5.34254 -5.9198,-6.66174 -5.58597,-0.91521 -12.70574,-4.6829 -14.97958,-7.92698 -0.53878,-0.76867 -0.98878,-4.54584 -1,-8.39374 -0.018,-6.18084 0.54204,-7.61872 4.80593,-12.33834 4.32089,-4.78272 4.67872,-5.72568 3.41671,-9.00384 -0.77531,-2.01391 -1.81646,-5.76166 -2.31366,-8.32832 -0.4972,-2.56667 -1.3719,-5.26667 -1.94381,-6 -0.57189,-0.73334 -2.31959,-5.53334 -3.88377,-10.66667 -1.56418,-5.13333 -4.72712,-13.83333 -7.02878,-19.33333 -2.30165,-5.5 -4.65383,-12.4 -5.22708,-15.33334 -2.69413,-13.78598 -5.63667,-27.85942 -8.50278,-40.66666 -3.07753,-13.75196 -4.79331,-32.93307 -5.30746,-59.33334 -0.14282,-7.33333 -1.06353,-33.29352 -2.04601,-57.6893 -1.4198,-35.25455 -1.45935,-48.66035 -0.19276,-65.33334 2.5021,-32.93666 7.27788,-57.13232 14.45335,-73.22525 1.69567,-3.80301 3.08304,-7.31233 3.08304,-7.79849 0,-1.62743 4.42478,-10.59401 6.34686,-12.86157 1.0449,-1.23269 2.89431,-4.00088 4.1098,-6.15151 6.11636,-10.82194 10.6945,-17.30226 15.42494,-21.833934 5.25497,-5.034171 26.9506,-17.106611 30.74262,-17.106611 1.12335,0 2.04244,-0.6 2.04244,-1.333333 0,-0.733333 1.2298,-1.333333 2.73288,-1.333333 1.50308,0 4.54452,-0.936839 6.75876,-2.081863 2.21423,-1.145024 8.6102,-2.958988 14.21326,-4.031029 5.60306,-1.072043 15.01161,-3.075447 20.9079,-4.452011 13.71588,-3.202145 49.0918,-6.072183 62.05388,-5.034415 33.78836,2.705159 36.04152,3.143368 49.86405,9.697891 15.96124,7.568679 22.18867,11.698005 30.3693,20.137497 5.82142,6.005631 21.92895,25.808831 26.43331,32.498091 1.1,1.63357 3.35,4.62329 5,6.6438 1.65,2.02051 3,4.86358 3,6.31793 0,1.45434 0.9,3.3912 2,4.30412 1.1,0.91292 2,2.48638 2,3.49658 0,1.01022 0.6,1.83675 1.33334,1.83675 0.73333,0 1.33333,0.73515 1.33333,1.63365 0,0.89851 1.44532,5.54851 3.21183,10.33334 1.76649,4.78482 4.23472,12.59968 5.48493,17.36634 1.2502,4.76667 3.43063,11.70839 4.84536,15.42604 1.41475,3.71766 3.114,12.01007 3.77611,18.42759 0.66212,6.41752 1.78218,13.57581 2.48904,15.90729 0.70685,2.3315 1.63598,8.93934 2.06473,14.6841 0.42875,5.74476 1.73228,14.12178 2.89675,18.6156 1.3478,5.20132 1.82974,10.61188 1.32617,14.88832 -0.43507,3.69476 -1.38416,17.81773 -2.10909,31.3844 -1.68284,31.49298 -6.6993,77.8813 -11.42686,105.66666 -0.46789,2.75 -1.31173,5 -1.87518,5 -0.56346,0 -1.78343,4.95 -2.71106,11 -0.92764,6.05 -2.49449,13.7 -3.4819,17 -0.98742,3.3 -1.80179,10.81655 -1.80974,16.70343 -0.012,9.32599 -0.54057,11.71752 -4.1028,18.5834 -2.24861,4.33397 -5.32121,11.51743 -6.828,15.96323 -2.44269,7.20717 -9.10736,20.5013 -12.07352,24.08328 -0.60725,0.73333 -2.8896,4.21464 -5.07186,7.73624 -2.56828,4.14452 -4.5504,6.06782 -5.61967,5.45289 -0.90855,-0.52249 -1.21331,-0.46521 -0.67725,0.12733 2.25426,2.4917 -9.75405,19.49146 -15.64132,22.14287 -1.46667,0.66055 -3.56667,1.77391 -4.66667,2.47416 -5.58146,3.55311 -13.03964,5.40096 -30.4788,7.55147 -18.47018,2.27765 -19.57534,2.27432 -31.33333,-0.0947 -15.02015,-3.02627 -22.25272,-6.02369 -25.98563,-10.76933 -2.49741,-3.17496 -2.86891,-5.35611 -2.86891,-16.8436 0,-15.30378 1.66504,-20.4578 8.91499,-27.59584 2.70832,-2.66651 4.07855,-3.64819 3.04496,-2.18152 -1.42221,2.01813 -0.99385,1.87728 1.76134,-0.57916 2.00233,-1.7852 3.06584,-3.60104 2.36337,-4.03519 -0.79581,-0.49184 -0.80889,-1.52993 -0.0347,-2.75417 1.08911,-1.72219 1.25007,-1.71784 1.30351,0.0352 0.0481,1.57692 0.34845,1.5064 1.42,-0.33334 0.74747,-1.28333 2.32923,-2.33333 3.51501,-2.33333 1.18578,0 1.7653,-0.39068 1.2878,-0.86816 -1.18296,-1.18296 3.20626,-4.37036 6.09039,-4.42277 1.28333,-0.0233 2.33333,-0.6424 2.33333,-1.37574 0,-0.73333 0.45,-1.26228 1,-1.17544 2.54422,0.40172 4.42292,-0.26757 3.76035,-1.33964 -0.40169,-0.64996 0.46289,-1.49378 1.92132,-1.87517 1.53819,-0.40225 2.65167,-1.81983 2.65167,-3.37587 0,-1.47534 0.34166,-3.57281 0.75926,-4.66105 0.55487,-1.44596 -1.29724,-2.74804 -6.87997,-4.83681 -6.84505,-2.56106 -15.32717,-7.4552 -16.21249,-9.35452 -0.50308,-1.07928 -19.40956,0.46649 -21.40885,1.75037 -0.95812,0.61528 -3.33295,4.51231 -5.2774,8.66008 -3.25694,6.94749 -3.57712,9.20051 -4.0658,28.60929 -0.3457,13.72952 0.0269,23.2503 1.06981,27.33334 2.02556,7.93042 2.85856,28.111 1.28196,31.0569 -1.58932,2.96967 -11.45168,5.04735 -24.34937,5.12962 -2.06223,0.0133 -4.2591,0.33886 -4.88191,0.72378 -2.05395,1.2694 -61.03513,1.64774 -63.25445,0.40575 z m 15.37709,-10.05063 c 0.0868,-2.01667 0.1004,-4.07591 0.0301,-4.57609 -0.0703,-0.50019 0.76677,-3.05019 1.86,-5.66667 1.64978,-3.94849 2.66468,-4.75724 5.96981,-4.75724 3.25471,0 3.97348,0.548 3.93485,3 -0.026,1.65 -0.90472,4.5 -1.95274,6.33333 -1.04803,1.83334 -1.92678,4.61771 -1.95275,6.1875 -0.0433,2.61572 0.67675,2.86501 8.61941,2.98417 l 8.66667,0.13 v -5.31751 c 5e-5,-4.7067 0.36336,-5.31749 3.16297,-5.31749 2.66135,0 3.29876,0.84947 4.0195,5.35668 l 0.85657,5.35669 7.3048,-0.35669 7.30481,-0.35668 0.009,-9.66667 0.009,-9.66666 h 4 4 v 8.82992 c 0,6.8763 0.36875,8.53902 1.66667,7.51508 1.66408,-1.31282 4.18729,-1.73434 10.16954,-1.69891 3.00554,0.0179 3.12844,-0.30893 2.37502,-6.31367 -0.437,-3.48282 -1.38095,-11.13242 -2.09767,-16.99909 -0.71671,-5.86667 -1.33547,-19.52793 -1.375,-30.35837 -0.0644,-17.64542 0.27408,-20.69363 3.25748,-29.33334 2.14028,-6.19809 4.76691,-10.95118 7.35437,-13.30829 3.86134,-3.51759 4.60123,-3.66667 18.19749,-3.66667 13.16496,0 14.58511,0.26067 19.97658,3.66667 3.19225,2.01667 5.80517,4.15208 5.80648,4.74536 10e-4,0.59328 0.56093,0.73349 1.24358,0.31159 0.68267,-0.42192 1.60188,-0.18354 2.04271,0.52973 0.44081,0.71328 1.66924,0.96387 2.72983,0.55689 3.1217,-1.19792 9.98626,6.65255 9.98626,11.42054 0,2.2564 0.38323,4.10256 0.8516,4.10256 0.46839,0 5.85636,-2.4 11.9733,-5.33334 6.11763,-2.93333 11.7344,-5.33333 12.48243,-5.33333 0.74802,0 1.36005,-0.6 1.36005,-1.33333 0,-0.73334 0.83581,-1.33334 1.85735,-1.33334 1.02154,0 2.23566,-0.98588 2.69805,-2.19084 0.46239,-1.20496 1.22276,-1.80877 1.68972,-1.34181 0.46697,0.46696 1.68687,-0.34716 2.71089,-1.80916 1.02403,-1.462 2.72784,-2.65819 3.78626,-2.65819 1.05842,0 1.7744,-0.45 1.59106,-1 -0.18333,-0.55 0.99378,-2.3271 2.61579,-3.94912 l 2.94913,-2.94913 0.83959,4.4754 c 0.46177,2.46147 0.18589,5.69685 -0.61308,7.18973 -2.02801,3.78939 -9.12397,8.597 -10.98833,7.44476 -0.9037,-0.5585 -1.19048,-0.3778 -0.68876,0.434 1.07416,1.73803 -5.8619,6.96394 -13.781,10.38318 -3.3,1.42484 -6.74383,3.30222 -7.65295,4.17194 -0.90913,0.86974 -3.45225,1.97652 -5.65139,2.45954 -2.19913,0.48301 -4.3407,1.43204 -4.75906,2.10896 -0.41836,0.6769 -1.65422,1.23074 -2.74636,1.23074 -1.84524,0 -4.34744,1.12871 -17.52358,7.90462 -2.75,1.41421 -8.83774,6.46888 -13.52832,11.23261 l -8.52832,8.66133 5.52832,-0.7415 c 5.25764,-0.7052 5.52832,-0.57138 5.52832,2.73314 0,4.11155 -6.46346,8.14774 -11.50444,7.1841 -2.82013,-0.53911 -3.16222,-0.1196 -3.16222,3.87726 0,4.14912 1.86566,6.19424 2.88889,3.16676 0.24444,-0.72326 3.3428,-1.71145 6.88524,-2.19597 l 6.44081,-0.88093 -0.44081,3.72814 c -0.24244,2.05048 -1.3408,4.16912 -2.4408,4.70811 -7.25285,3.55376 -9.38807,4.21996 -11.24339,3.50801 -2.76458,-1.06086 -2.6363,-8.8e-4 0.47922,3.95987 1.98324,2.52128 2.81945,2.86015 3.66666,1.48589 0.60363,-0.97914 3.79751,-2.61804 7.09751,-3.64198 3.3,-1.02395 7.18351,-2.64796 8.63001,-3.60892 1.4465,-0.96096 4.33635,-1.7472 6.4219,-1.7472 3.34998,0 3.74272,0.4273 3.36998,3.66666 -0.32802,2.85084 -1.68272,4.23662 -6.08856,6.22826 -3.11666,1.40886 -5.66666,2.94544 -5.66666,3.4146 0,1.8015 13.03008,3.83661 20.66666,3.22782 21.26538,-1.69525 37.67055,-6.74426 45.43226,-13.98262 1.52106,-1.41851 3.26726,-2.12363 3.88042,-1.56692 0.61318,0.5567 0.68636,0.26722 0.16264,-0.6433 -0.54614,-0.9495 0.35774,-2.96544 2.11956,-4.72726 1.68948,-1.68948 3.07179,-4.24451 3.07179,-5.67784 0,-1.43334 1.35,-3.19835 3,-3.92224 1.65,-0.7239 3,-2.34408 3,-3.60042 0,-1.25633 0.75,-2.76405 1.66666,-3.35049 0.91667,-0.58644 1.66667,-1.96625 1.66667,-3.06625 0,-1.1 0.7946,-1.83514 1.76577,-1.63363 0.97118,0.20149 1.38576,-0.24851 0.92131,-1 -0.46505,-0.75151 -0.17424,-1.36637 0.64565,-1.36637 0.8199,0 1.11727,-0.60424 0.66084,-1.34275 -0.45641,-0.73852 0.10467,-1.70139 1.24699,-2.13972 1.14228,-0.43832 1.72152,-1.37189 1.28724,-2.0746 -0.43429,-0.70269 0.28633,-2.46656 1.60139,-3.91968 1.31506,-1.45312 2.5662,-3.78992 2.7803,-5.19287 0.70678,-4.63122 7.34866,-19.99705 8.64372,-19.99705 0.69863,0 0.88318,-0.62628 0.4101,-1.39173 -0.47308,-0.76547 -0.1723,-2.22056 0.66841,-3.23355 0.84071,-1.013 2.36049,-8.96384 3.37731,-17.66855 1.01681,-8.7047 2.47152,-17.46474 3.23268,-19.46676 3.38098,-8.89268 4.29366,-21.23569 2.2329,-30.19766 -1.10136,-4.78963 -2.3536,-18.90842 -2.78278,-31.37508 -0.96059,-27.90298 -1.26176,-30.74924 -3.9106,-36.95718 -3.27348,-7.67186 -2.82946,-10.37616 1.70369,-10.37616 3.27977,0 4.11055,0.79994 5.88511,5.66667 3.03777,8.33103 5.13205,25.79875 4.95652,41.34076 -0.0848,7.51259 -0.11814,15.40924 -0.074,17.54813 0.14492,7.02451 2.06169,2.08878 2.97686,-7.66546 1.75668,-18.72346 3.70611,-34.37464 4.42675,-35.54066 0.40247,-0.65121 1.34752,-13.07124 2.10012,-27.60006 0.75256,-14.52882 1.87365,-32.41604 2.49128,-39.74938 0.85864,-10.1949 0.69439,-14.5887 -0.69783,-18.66666 -1.00144,-2.93334 -2.1984,-10.73334 -2.6599,-17.33334 -0.46152,-6.6 -1.62331,-15 -2.58176,-18.66666 -0.95844,-3.66667 -2.0872,-10.88787 -2.50835,-16.04711 -0.42288,-5.18039 -1.96747,-11.86773 -3.44969,-14.93559 -1.47618,-3.05533 -2.68396,-6.36008 -2.68396,-7.34388 0,-5.08097 -8.50882,-31.0576 -12.34018,-37.67342 -0.84937,-1.46667 -3.15053,-5.71807 -5.11369,-9.44756 -4.69057,-8.91088 -9.30777,-15.72378 -16.22307,-23.93789 -3.11102,-3.69532 -6.85639,-8.42496 -8.32306,-10.51031 -8.57101,-12.186502 -19.31077,-19.972165 -42,-30.447395 -5.53381,-2.554868 -12.21073,-3.947367 -27.20949,-5.674654 -17.22418,-1.983568 -22.47226,-2.076237 -39.33335,-0.694533 -10.70144,0.876944 -22.15717,2.175963 -25.45717,2.886709 -3.3,0.710747 -12.61585,2.677492 -20.70189,4.370546 -8.08604,1.693053 -16.60624,4.063057 -18.93379,5.266677 -2.32755,1.203619 -5.34169,2.188399 -6.69811,2.188399 -1.35641,0 -3.03621,0.503834 -3.73288,1.119632 -0.69666,0.615798 -3.36666,1.914614 -5.93333,2.88626 -2.56667,0.971644 -5.60612,2.560758 -6.75433,3.531364 -1.14823,0.970606 -4.00059,1.974154 -6.3386,2.230109 -2.338,0.255953 -4.69855,0.9592 -5.24566,1.562769 -0.5471,0.60357 -0.24474,0.665795 0.67192,0.138276 0.91667,-0.527517 1.66667,-0.644822 1.66667,-0.260678 0,0.384145 -1.2724,1.379419 -2.82757,2.211709 -2.29047,1.22582 -2.62175,1.17142 -1.74406,-0.28642 0.89603,-1.488283 0.69571,-1.485159 -1.15774,0.0181 -1.2327,0.99976 -1.85516,2.44247 -1.38327,3.20601 0.47189,0.76355 0.25711,1.0169 -0.47732,0.56301 -0.73441,-0.4539 -3.07712,1.04619 -5.20601,3.33353 -2.12888,2.28735 -3.1207,3.7306 -2.20403,3.20724 2.87867,-1.64356 1.90203,0.21718 -6.81617,12.98636 -4.66558,6.83346 -9.53976,15.67835 -10.83154,19.65529 -1.29177,3.97696 -3.40748,9.33083 -4.70157,11.8975 -5.02554,9.96749 -10.07285,33.61497 -12.78379,59.89418 -2.01243,19.50803 -2.08509,26.48312 -0.66661,64 0.87559,23.1582 2.15999,57.70582 2.85422,76.77248 0.69424,19.06667 1.6606,35.56667 2.14748,36.66667 0.48688,1.1 0.7643,2.75 0.61649,3.66667 -0.14781,0.91666 0.36899,1.66666 1.14844,1.66666 0.86715,0 1.07311,1.37091 0.53066,3.5322 -0.663,2.64163 -0.4653,3.27188 0.78411,2.4997 1.22366,-0.75626 1.43002,-0.27438 0.77128,1.80113 -0.56853,1.79125 -0.32335,2.83364 0.66647,2.83364 0.87244,0 1.21153,0.92331 0.76574,2.08501 -1.17612,3.06492 8.05034,41.91499 9.95434,41.91499 0.62888,0 0.79806,0.9 0.37596,2 -0.42452,1.10625 -0.0384,2 0.86401,2 1.04753,0 1.33613,-1.07379 0.80629,-3 -1.87144,-6.80359 -6.13793,-29.24391 -8.04868,-42.33333 -7.2398,-49.59559 -8.69187,-131.75235 -2.94573,-166.66667 1.02587,-6.23333 1.57219,-11.82763 1.21405,-12.43176 -0.35814,-0.60415 0.50399,-0.37704 1.91584,0.50468 2.40811,1.50389 2.44651,1.96912 0.62039,7.51605 -1.58539,4.81571 -1.64939,6.90498 -0.34485,11.25914 1.18466,3.95405 1.21312,5.81449 0.1092,7.14456 -1.11036,1.3379 -1.04616,2.52685 0.2507,4.64349 1.48111,2.41733 1.42394,3.02677 -0.38026,4.05329 -1.82936,1.04084 -2.16134,5.32444 -2.39671,30.92603 -0.61331,66.71139 8.09843,142.32763 20.34657,176.60432 7.27066,20.34707 21.41535,55.80869 22.42651,56.22464 2.02607,0.83344 1.08687,9.64921 -1.58623,14.88889 -1.46666,2.87491 -2.66666,6.61766 -2.66666,8.31723 0,4.87975 5.2555,8.46216 13,8.86144 2.38664,0.12307 3.03228,-0.595 3.15789,-3.512 z m 74.51008,-200.81121 c -7.2e-4,-0.6295 -1.55157,-0.75546 -3.44636,-0.2799 -2.41672,0.60656 -3.16286,0.40808 -2.49969,-0.66496 0.66089,-1.06934 0.0424,-1.24305 -2.05525,-0.57726 -2.13151,0.67652 -2.7204,0.49896 -2.03318,-0.613 0.58996,-0.95458 0.24423,-1.4005 -0.88609,-1.14284 -1.01944,0.23237 -3.62965,-1.4064 -5.80047,-3.64172 -2.60684,-2.68432 -3.04152,-2.91067 -1.28026,-0.66667 l 2.66666,3.39756 -3.60766,-3.17699 c -1.98423,-1.74734 -3.48423,-3.82833 -3.33334,-4.6244 0.15088,-0.79606 -1.35977,-1.39942 -3.35702,-1.34078 -1.99726,0.0587 -3.31184,-0.41039 -2.92131,-1.04228 0.39052,-0.63188 0.0247,-1.14888 -0.81309,-1.14888 -0.83772,0 -1.27492,-0.74464 -0.97155,-1.65476 0.75431,-2.26291 -2.61281,-5.40612 -4.52515,-4.22424 -0.96708,0.59769 -1.18976,0.3755 -0.59238,-0.59107 0.53532,-0.86616 0.0419,-1.90003 -1.11966,-2.34573 -1.14228,-0.43832 -1.79389,-1.2548 -1.44805,-1.8144 0.34585,-0.55959 -0.7076,-0.94672 -2.34099,-0.86028 -1.63338,0.0864 -2.86132,-0.4683 -2.72873,-1.23274 0.13253,-0.76442 -0.93037,-1.47812 -2.36215,-1.58597 -1.48962,-0.11213 -2.23816,0.39459 -1.74982,1.18472 0.50221,0.8126 -0.17079,1.18357 -1.63546,0.90151 -1.43241,-0.27586 -2.48986,-1.60367 -2.49124,-3.12818 -0.001,-1.86958 -0.86546,-2.61981 -2.9361,-2.55012 -1.61354,0.0543 -2.62814,-0.39569 -2.25464,-1 0.37348,-0.6043 0.0436,-1.09874 -0.73296,-1.09874 -0.77662,0 -1.26203,-0.675 -1.0787,-1.5 0.18334,-0.825 -0.41666,-1.775 -1.33333,-2.11111 -0.91667,-0.33612 -1.66667,0.02 -1.66667,0.79148 0,0.77143 -0.9,1.05724 -2,0.63513 -1.1,-0.42212 -2,-1.58445 -2,-2.58297 0,-1.066 -0.82568,-1.49867 -2,-1.04804 -1.26645,0.48599 -2,-0.0184 -2,-1.37517 0,-1.17847 -0.59292,-2.14266 -1.31761,-2.14266 -0.72469,0 -1.17469,-1.32541 -1,-2.94534 0.2114,-1.96043 -0.51545,-3.11796 -2.17363,-3.46151 -1.71453,-0.35524 -2.17264,-6.7e-4 -1.46934,1.13728 0.56202,0.9094 -0.83428,0.55699 -3.10292,-0.78313 -2.26864,-1.34012 -3.88527,-2.82418 -3.5925,-3.2979 0.68122,-1.10222 -3.59409,-0.80958 -5.5148,0.37747 -0.80149,0.49535 -1.76105,0.59684 -2.13236,0.22553 -1.2679,-1.2679 1.03386,-9.05152 2.85636,-9.65902 1.24902,-0.41634 1.47115,-0.0303 0.70979,1.23365 -0.90352,1.49984 -0.73156,1.53487 0.93096,0.18963 1.68648,-1.36464 2.59552,-1.02572 5.25595,1.95965 2.39532,2.68788 2.5358,3.10924 0.5501,1.65001 -2.47542,-1.8191 -2.53364,-1.79016 -0.81176,0.40379 1.20138,1.53072 2.78696,2.06761 4.50031,1.52381 1.59732,-0.50696 2.32105,-0.31481 1.82676,0.48499 -0.76237,1.23355 3.78673,3.46955 6.25047,3.07225 0.6045,-0.0975 0.71909,0.43764 0.25464,1.18914 -0.46446,0.7515 -0.14486,1.36637 0.71021,1.36637 0.85507,0 1.20932,0.9 0.7872,2 -0.69919,1.82207 1.40945,2.73376 4.91461,2.12485 0.60451,-0.10493 0.7191,0.42395 0.25464,1.17544 -0.46445,0.75151 -0.35905,1.37972 0.23423,1.39603 0.59328,0.0163 2.57869,1.26837 4.41203,2.78236 1.83333,1.514 2.49062,2.30796 1.46065,1.76435 -1.17183,-0.61848 -1.54409,-0.45674 -0.99471,0.4322 1.17024,1.89349 5.63423,1.0716 5.16768,-0.95146 -0.20149,-0.87376 0.30078,-1.17633 1.11616,-0.6724 0.81539,0.50394 1.21434,1.94182 0.88655,3.19528 -0.49189,1.88102 0.30281,2.24546 4.55051,2.08682 2.83057,-0.10574 5.14649,0.33641 5.14649,0.98252 0,0.64609 0.6,0.8039 1.33333,0.35068 0.73334,-0.45323 1.33334,-0.15323 1.33334,0.66666 0,0.8199 0.59313,1.12414 1.31806,0.67611 0.78291,-0.48387 0.96159,0.11427 0.44008,1.47337 -0.59168,1.54188 -0.37429,1.97667 0.66667,1.33334 1.02075,-0.63087 1.26561,-0.22752 0.72195,1.18924 -0.49712,1.2955 0.32538,3.21349 2.07846,4.84673 2.31122,2.15323 3.29202,2.37845 4.82328,1.10761 1.05718,-0.87737 1.53603,-2.21993 1.06414,-2.98349 -0.50254,-0.81311 -0.21124,-0.98855 0.70309,-0.42345 0.8586,0.53064 1.21591,1.52334 0.79399,2.20601 -0.42191,0.68265 -0.0963,1.2412 0.72361,1.2412 0.81989,0 1.11989,0.6 0.66667,1.33333 -0.45323,0.73334 -0.15323,1.33334 0.66666,1.33334 0.8199,0 1.12414,0.59313 0.67611,1.31806 -0.48707,0.7881 0.12427,0.95776 1.52056,0.42198 1.31228,-0.50358 1.66745,-1.11867 0.81083,-1.40422 -0.8384,-0.27946 -1.19387,-1.36934 -0.78994,-2.42197 0.40392,-1.05261 0.0891,-1.91385 -0.69973,-1.91385 -0.78983,0 -1.05163,-0.99679 -0.58273,-2.21872 0.61592,-1.60507 0.36617,-1.91884 -0.90296,-1.13447 -1.35767,0.83908 -1.54758,0.26027 -0.83982,-2.55967 0.59123,-2.35564 0.43138,-3.34529 -0.45213,-2.79925 -0.88696,0.54817 -1.06668,-0.65544 -0.51197,-3.42893 0.62122,-3.10614 0.42502,-4.00804 -0.7182,-3.3015 -1.16342,0.71904 -1.3383,-0.49506 -0.67174,-4.66353 0.69739,-4.36119 0.52079,-5.40055 -0.78092,-4.59605 -1.30653,0.80748 -1.47008,-0.26331 -0.7325,-4.7958 0.52228,-3.20948 1.56456,-6.43542 2.31618,-7.16875 0.93104,-0.90839 1.08975,0.50399 0.49799,4.43145 -0.64199,4.26087 -0.45825,5.5112 0.70429,4.79271 1.14848,-0.7098 1.35815,0.35107 0.7771,3.93175 -0.52834,3.25568 -0.32628,4.61368 0.60114,4.04049 0.93334,-0.57683 1.08106,0.57484 0.44511,3.47027 -0.61759,2.81185 -0.47721,4.04029 0.39975,3.4983 0.82885,-0.51226 1.06058,0.27735 0.59921,2.04168 -0.54788,2.09511 -0.29408,2.59378 0.93385,1.83487 1.24211,-0.76765 1.44935,-0.29583 0.78686,1.79151 -0.52198,1.64458 -0.31974,2.83364 0.48197,2.83364 0.75973,0 0.9982,0.99842 0.52993,2.21872 -0.5686,1.48176 -0.33833,1.90164 0.69324,1.26409 0.95579,-0.59072 1.28386,-0.27503 0.86055,0.82808 -0.37625,0.98051 0.55399,3.11167 2.06721,4.73592 1.51322,1.62425 2.31326,2.95319 1.77787,2.95319 -0.5354,0 0.19123,0.94449 1.61472,2.09888 1.42349,1.15437 1.68817,1.66158 0.58817,1.12712 -2.62602,-1.27594 5.32978,7.30644 8.23403,8.8825 1.34849,0.7318 3.46257,0.71982 5.33333,-0.0303 3.00352,-1.20419 3.01086,-1.2452 0.23743,-1.3271 -2.70975,-0.08 -11.13812,-8.16818 -11.13812,-10.68853 0,-0.64784 -0.37181,-2.14681 -0.82625,-3.33107 -0.70722,-1.84296 -0.35983,-1.94065 2.4112,-0.67809 1.7806,0.81129 3.87622,3.1674 4.65696,5.2358 0.78073,2.0684 2.99569,4.79347 4.92213,6.05572 3.2724,2.14416 3.72472,2.14949 6.8814,0.0812 1.85832,-1.21763 3.71965,-3.91825 4.13629,-6.00143 0.44721,-2.23608 2.06711,-4.38425 3.95456,-5.24424 1.75837,-0.80116 3.19705,-1.15026 3.19705,-0.77576 0,2.23287 -4.06093,9.64407 -6.4512,11.77346 -1.55058,1.38133 -2.45827,3.09561 -2.01706,3.8095 0.48632,0.78686 -0.44491,0.95415 -2.36477,0.4248 -2.88151,-0.79446 -2.93728,-0.73044 -0.61879,0.71032 2.098,1.30374 2.86357,1.15219 4.33334,-0.85784 0.98183,-1.34273 1.78515,-1.93366 1.78515,-1.31317 0,0.62048 1.18585,0.0549 2.63523,-1.25669 1.44937,-1.31167 2.31134,-2.9089 1.91549,-3.5494 -0.39585,-0.64051 0.21484,-1.52319 1.35711,-1.96152 1.14228,-0.43832 1.78374,-1.27122 1.4255,-1.85087 -0.35824,-0.57965 0.30746,-1.42184 1.47934,-1.87152 1.2148,-0.46617 1.80262,-1.67249 1.36752,-2.80639 -0.41974,-1.09381 -0.14659,-1.98876 0.60701,-1.98876 0.7536,0 0.99936,-0.6 0.54613,-1.33333 -0.45322,-0.73333 -0.20746,-1.33333 0.54614,-1.33333 0.7536,0 0.98704,-0.99843 0.51877,-2.21872 -0.60536,-1.57754 -0.35932,-1.91462 0.85136,-1.16638 1.27583,0.78852 1.46397,0.30004 0.7504,-1.94824 -0.66579,-2.0977 -0.49208,-2.71614 0.57727,-2.05525 1.08277,0.66919 1.26245,-0.11907 0.61505,-2.69856 -0.64055,-2.55216 -0.46284,-3.36475 0.59315,-2.71211 1.0622,0.65647 1.25514,-0.33098 0.65298,-3.34178 -0.58793,-2.93967 -0.39822,-3.99148 0.60778,-3.36974 1.00978,0.62408 1.21616,-0.61408 0.66669,-3.99998 -0.60941,-3.75543 -0.40068,-4.65966 0.89136,-3.86114 1.30939,0.80926 1.47725,-0.1995 0.74977,-4.50548 -0.59245,-3.50665 -0.38353,-6.2155 0.56775,-7.36173 0.8278,-0.99744 1.33404,-2.32669 1.12499,-2.95388 -0.20907,-0.62719 0.21988,-1.27873 0.95321,-1.44785 1.66149,-0.3832 1.78867,5.04674 0.17157,7.32609 -0.65758,0.92689 -0.82668,4.37689 -0.37576,7.66667 0.54479,3.9747 0.32516,5.98141 -0.65465,5.98141 -0.93256,0 -1.17559,1.49453 -0.66124,4.06628 0.56469,2.82347 0.35713,3.78437 -0.67913,3.14393 -1.02275,-0.63209 -1.29888,0.39602 -0.87751,3.26706 0.33817,2.30417 0.0488,4.1894 -0.64304,4.1894 -0.69187,0 -0.94391,1.20082 -0.56009,2.6685 0.43949,1.6806 0.17249,2.34384 -0.72119,1.79151 -0.90929,-0.56197 -1.14877,0.15644 -0.66667,2 0.48688,1.86185 0.24582,2.56395 -0.68322,1.98976 -0.90803,-0.56119 -1.1227,-0.0719 -0.58416,1.33151 0.46826,1.22029 0.33442,2.21872 -0.29744,2.21872 -0.63186,0 -1.50615,0.93116 -1.94288,2.06925 -0.52267,1.36207 -0.22967,1.78395 0.85734,1.23445 0.90827,-0.45913 0.48672,0.10974 -0.93677,1.26408 -1.42349,1.15439 -2.05881,2.09888 -1.41183,2.09888 0.64699,0 0.012,0.90147 -1.41182,2.00327 -2.50923,1.94217 -2.51032,1.97593 -0.0361,1.10675 1.96876,-0.6916 2.2912,-0.46379 1.41074,0.99673 -0.9719,1.61217 -0.8086,1.62339 1.09992,0.0755 1.23269,-0.99976 1.93525,-2.31288 1.56124,-2.91806 -0.37402,-0.60516 0.38258,-1.71893 1.68134,-2.47504 1.29876,-0.7561 1.7967,-1.39298 1.10654,-1.41528 -0.69016,-0.0223 -0.0901,-0.98504 1.33333,-2.13942 1.42349,-1.15438 1.68817,-1.70988 0.58817,-1.23446 -1.33452,0.5768 -1.2305,0.2331 0.31262,-1.03296 1.27193,-1.04356 2.04921,-2.16076 1.72729,-2.48268 -0.32191,-0.32192 0.67264,-1.3709 2.21012,-2.33108 2.54387,-1.58866 2.72963,-1.49413 2.06419,1.05048 -0.47534,1.81768 -0.10254,2.79624 1.06525,2.79624 0.98807,0 2.2246,0.69271 2.74785,1.53935 0.633,1.02421 0.36043,1.17412 -0.81456,0.44793 -1.30045,-0.80372 -1.52933,-0.47485 -0.86834,1.24766 1.31129,3.4172 -0.28898,5.2128 -2.81907,3.16314 -1.17548,-0.95228 -1.82679,-1.13141 -1.44736,-0.39808 0.37944,0.73334 -2.01401,3.73334 -5.31877,6.66667 -3.30478,2.93333 -5.55555,4.43333 -5.00174,3.33333 0.60812,-1.20786 0.25546,-1.08405 -0.89044,0.31262 -1.04356,1.27193 -2.28805,1.92193 -2.76554,1.44444 -0.47747,-0.47746 -0.86815,-0.18696 -0.86815,0.64558 0,0.86406 -0.95224,1.1483 -2.21872,0.66231 -1.51204,-0.58023 -1.90547,-0.34453 -1.23521,0.73996 0.73069,1.18229 -0.49838,1.38423 -4.78128,0.78555 -3.47721,-0.48606 -5.10884,-0.33838 -4.11175,0.37216 1.03387,0.73674 -1.0882,1.15165 -5.66537,1.10769 -4.02512,-0.0387 -7.31899,-0.58531 -7.31971,-1.21481 z m 8.33203,-1.7385 c -0.91667,-0.36988 -2.41667,-0.36988 -3.33333,0 -0.91667,0.36988 -0.16667,0.67252 1.66666,0.67252 1.83334,0 2.58334,-0.30264 1.66667,-0.67252 z m -22.67497,-9.3361 c -0.92124,-0.3714 -1.27854,-1.31674 -0.79399,-2.10075 0.50069,-0.81015 0.25628,-1.03937 -0.56623,-0.53104 -0.79597,0.49193 -1.82409,0.28464 -2.2847,-0.46065 -0.46062,-0.7453 -0.10214,-1.35508 0.79676,-1.35508 0.89884,0 1.27416,-0.36008 0.83406,-0.80019 -0.4401,-0.44009 -1.47918,-0.38053 -2.30908,0.1324 -1.74076,1.07585 2.10434,6.07136 4.53814,5.89588 0.83508,-0.0601 0.74306,-0.39431 -0.21496,-0.78055 z m 31.67498,4.3824 c 0,-0.27687 1.05,-1.32687 2.33333,-2.33334 2.11475,-1.65849 2.16191,-1.61133 0.50342,0.50342 -1.74183,2.221 -2.83675,2.9273 -2.83675,1.82992 z M 252.1237,338.70777 c -6.55449,-3.9967 -6.85268,-5.64564 -0.93605,-5.17625 5.5582,0.44096 7.08136,-2.06813 2.86862,-4.72547 -1.7294,-1.09086 -2.89722,-0.84165 -5.00818,1.06874 -3.05435,2.76416 -3.34824,2.66764 -4.63498,-1.52223 -1.2503,-4.07123 2.07642,-5.53088 14.18774,-6.22508 10.83296,-0.62092 20.39541,0.62857 22.73794,2.97111 2.25033,2.25033 -2.1482,10.34274 -7.34335,13.51025 -5.74125,3.50047 -16.21562,3.54785 -21.87174,0.0989 z m 25.5212,-8.30454 c 0,-2.76255 -4.96504,-3.0178 -6.91187,-0.35535 -3.24744,4.44112 -2.24761,5.96863 2.57853,3.93939 2.38334,-1.00212 4.33334,-2.61494 4.33334,-3.58404 z m 23.69996,4.91148 c 1.02708,-0.75718 1.61476,-2.12668 1.30596,-3.04335 -0.30882,-0.91667 0.18852,-1.66667 1.10518,-1.66667 0.91667,0 1.27188,-0.3948 0.78935,-0.87732 -1.24769,-1.24769 1.80837,-4.58733 3.33464,-3.64405 0.69645,0.43043 2.5316,-0.32617 4.07812,-1.68135 1.54651,-1.35517 2.39788,-1.75372 1.89192,-0.88568 -0.62635,1.07462 0.16808,1.46228 2.48936,1.21479 3.58541,-0.38227 7.94892,-3.45972 4.90551,-3.45972 -0.88,0 -1.6,-0.69299 -1.6,-1.53999 0,-0.91296 1.00793,-0.62781 2.47549,0.70031 2.20985,1.99989 2.65659,2.02207 4.16325,0.20665 0.92828,-1.1185 1.22131,-2.03364 0.6512,-2.03364 -0.57012,0 -0.0269,-1.11566 1.20711,-2.47925 1.26207,-1.39456 3.64616,-2.32529 5.44927,-2.12736 2.43597,0.2674 3.01289,-0.15021 2.40304,-1.73948 -0.57667,-1.50276 -0.29974,-1.78061 0.98397,-0.98724 1.31637,0.81357 1.55547,0.50203 0.90852,-1.18385 -0.48393,-1.26112 -0.32951,-1.94902 0.34409,-1.53271 0.67214,0.41541 1.59598,-0.42281 2.05299,-1.86271 0.54956,-1.73152 1.55908,-2.33857 2.98139,-1.79277 1.54973,0.59468 1.84489,0.33077 1.05657,-0.94473 -0.81993,-1.3267 -0.3766,-1.58239 1.77023,-1.02098 2.09241,0.54718 3.7721,-0.33013 6.23416,-3.2561 2.10452,-2.5011 4.13746,-3.7106 5.41364,-3.2209 1.16632,0.44758 1.69389,0.2184 1.22897,-0.53385 -0.44803,-0.72493 -0.19803,-1.31807 0.55557,-1.31807 0.7536,0 1.02482,-0.9 0.60271,-2 -0.42247,-1.10092 -0.0399,-2 0.85116,-2 0.91508,0 1.27349,-0.89942 0.82459,-2.06925 -0.51879,-1.35193 -0.25859,-1.73832 0.7506,-1.1146 1.01906,0.62981 1.2662,0.229 0.7263,-1.17795 -0.45009,-1.17292 -0.29706,-2.32134 0.34008,-2.55205 0.63714,-0.23072 1.35343,-1.31948 1.59176,-2.41948 0.23834,-1.1 2.38334,-3.37163 4.76667,-5.04807 2.38333,-1.67644 4.33333,-3.3999 4.33333,-3.82993 0,-0.43001 -1.05,0.0416 -2.33333,1.04808 -2.11475,1.65849 -2.16191,1.61133 -0.50341,-0.50341 1.00646,-1.28334 3.10646,-2.32415 4.66666,-2.31292 2.32023,0.0167 2.47259,0.25576 0.83675,1.31292 -1.1,0.71088 -1.4,1.29249 -0.66667,1.29249 0.73333,0 2.23333,-0.5908 3.33333,-1.31291 1.52536,-1.00133 1.6121,-1.5642 0.36547,-2.37174 -1.76831,-1.1455 -1.72733,-9.60083 0.0465,-9.60519 0.59328,-10e-4 0.70787,-0.60265 0.25464,-1.33599 -0.45319,-0.73333 -0.12437,-1.33333 0.73066,-1.33333 0.85507,0 1.20932,-0.9 0.7872,-2 -0.42211,-1.1 -0.18629,-2 0.52401,-2 0.71032,0 1.1415,-0.75 0.95816,-1.66667 -0.20573,-1.02868 0.81504,-1.50698 2.66667,-1.24952 3.36067,0.4673 4.08285,-2.41526 1.33333,-5.3219 -2.31765,-2.4501 -2.40526,-8.07482 -0.112,-7.19483 1.83467,0.70403 2.48631,-2.08173 0.86596,-3.70207 -0.50201,-0.50202 -0.99845,-2.74492 -1.1032,-4.98422 -0.1451,-3.10246 0.31014,-3.94118 1.91278,-3.52412 1.52913,0.39794 2.14194,-0.48588 2.24517,-3.238 0.0781,-2.08194 -0.39303,-3.78534 -1.04691,-3.78534 -0.65389,0 -0.46638,-1.35 0.41667,-3 0.88305,-1.65 1.65416,-3.12417 1.71357,-3.27593 0.0595,-0.15177 -1.09197,-1.24627 -2.55864,-2.43221 -1.46666,-1.18595 -1.76666,-1.70864 -0.66666,-1.16154 1.3885,0.6906 1.24666,0.13503 -0.46395,-1.8171 -2.63539,-3.0075 -1.82115,-6.29708 1.26548,-5.11263 3.44684,1.32268 1.90617,-2.00763 -3.12307,-6.75081 l -4.98821,-4.70448 3.13592,-2.53932 c 1.72472,-1.39662 2.434,-2.53931 1.57615,-2.53931 -0.85786,0 -1.21171,-0.56312 -0.78634,-1.25139 0.42536,-0.68826 -0.19298,-1.7922 -1.37412,-2.45318 -1.18112,-0.661 -2.09374,-1.59788 -2.02804,-2.08195 0.0657,-0.48408 0.11027,-1.93015 0.0991,-3.21348 -0.0175,-1.99407 -0.20835,-2.04253 -1.31292,-0.33333 -0.71088,1.1 -1.30169,1.37 -1.31292,0.6 -0.0107,-0.77 0.60501,-2.02543 1.36943,-2.78984 0.96424,-0.96424 0.65801,-1.96458 -1,-3.26667 -2.2297,-1.75105 -2.25582,-1.69813 -0.38984,0.78984 1.81441,2.41923 1.8008,2.51123 -0.14682,0.99153 -2.24162,-1.7491 -1.93566,-8.94524 0.32103,-7.55053 0.66144,0.4088 0.84824,1.31667 0.41509,2.01749 -0.43313,0.70084 0.007,1.10938 0.97826,0.90788 1.0415,-0.2161 1.93333,1.08072 2.17429,3.1617 0.22469,1.94042 1.72469,4.64042 3.33333,6 l 2.9248,2.47193 -2.66666,-3.33333 -2.66667,-3.33334 2.77777,2.33888 c 2.61415,2.2011 4.06368,7.00522 1.66667,5.52378 -2.15015,-1.32886 -1.08281,2.53322 1.22223,4.42256 1.52644,1.25116 1.6417,1.61361 0.33333,1.04812 -1.77777,-0.76838 -1.77777,-0.66826 0,0.90112 2.12999,1.88029 3.1778,6.90549 1.1828,5.6725 -2.20488,-1.36268 -1.19809,1.12122 1.15053,2.83858 1.28334,0.93838 2.40834,2.35453 2.5,3.14698 0.0917,0.79244 0.24167,2.07623 0.33334,2.85284 0.0917,0.77662 0.714,1.07375 1.38296,0.66031 0.66894,-0.41344 1.04852,0.30116 0.84346,1.58799 -0.20505,1.28682 -1.20237,2.28134 -2.21629,2.21005 -1.08229,-0.0761 -1.84347,1.16259 -1.84347,3 0,1.72129 0.43118,3.12963 0.95816,3.12963 0.52698,0 0.57502,0.99842 0.1068,2.21872 -0.4846,1.26284 -0.30244,1.87945 0.4228,1.43122 0.7008,-0.43312 1.2742,0.38331 1.2742,1.8143 0,1.78873 -0.63988,2.35845 -2.04762,1.8231 -1.56874,-0.59656 -1.6822,-0.41037 -0.48514,0.79614 0.85936,0.86613 1.20739,2.50012 0.77342,3.63105 -0.51447,1.34065 -0.25151,1.72403 0.75558,1.10161 1.04095,-0.64334 1.25835,-0.20856 0.66667,1.33334 -0.64283,1.67517 -0.405,1.99565 0.88795,1.19657 1.23062,-0.76057 1.44961,-0.5796 0.72242,0.597 -0.59506,0.96284 -0.32369,2.13328 0.63148,2.72361 0.92124,0.56936 1.2627,1.70227 0.7588,2.5176 -1.14008,1.84459 -4.75885,1.95795 -4.75885,0.14907 0,-0.73333 -0.77143,-1.33333 -1.71428,-1.33333 -0.94287,0 -1.71429,1.2 -1.71429,2.66666 0,1.46667 0.53562,2.66667 1.19026,2.66667 0.65466,0 0.83296,0.93116 0.39623,2.06925 -0.43672,1.13808 -0.26379,1.74154 0.38431,1.34099 0.64809,-0.40055 1.54121,0.21737 1.98473,1.37313 1.32123,3.44307 0.93932,4.33508 -1.57457,3.67768 -1.69583,-0.44348 -2.38096,0.13979 -2.38096,2.02694 0,1.45725 0.55893,2.30412 1.24208,1.88192 0.72676,-0.44916 0.87426,0.6978 0.35554,2.76456 -0.52453,2.0899 -0.33172,3.5322 0.47222,3.5322 0.7473,0 1.35873,0.83002 1.35873,1.84449 0,2.60564 -4.98465,3.65401 -5.90985,1.24296 -0.41182,-1.07316 -1.79038,-1.7506 -3.06348,-1.50543 -1.7026,0.3279 -2.35558,1.85252 -2.46918,5.76522 -0.26274,9.05046 -1.99961,16.4092 -4.05962,17.1997 -1.10807,0.4252 -1.61336,0.17927 -1.1551,-0.56221 0.44803,-0.72493 -0.3854,-1.31807 -1.85206,-1.31807 -1.46667,0 -3.09477,0.69271 -3.61803,1.53935 -0.62548,1.01204 -0.30988,1.20653 0.92131,0.56779 1.02997,-0.53436 0.81225,-0.10334 -0.48381,0.95792 -1.39815,1.14478 -2.01559,2.81788 -1.51822,4.114 0.60378,1.5734 0.27498,1.96836 -1.1753,1.41184 -1.10747,-0.42499 -2.46699,-0.0391 -3.02114,0.85754 -0.68538,1.10899 -0.40876,1.3196 0.86514,0.6587 1.02997,-0.53436 0.832,-0.11774 -0.43994,0.92582 -1.27193,1.04356 -1.97054,2.23944 -1.55246,2.65752 0.41808,0.41807 -0.5478,1.46012 -2.14638,2.31566 -1.93641,1.03633 -2.68373,2.40746 -2.23902,4.10802 0.36712,1.40388 0.0537,2.55251 -0.69652,2.55251 -0.75022,0 -1.07636,1.1 -0.72479,2.44444 0.38893,1.48728 -0.0723,2.44445 -1.17781,2.44445 -0.99939,0 -1.81707,-0.44692 -1.81707,-0.99313 0,-1.53985 -3.83613,-0.60785 -5.68016,1.38001 -1.33851,1.44291 -1.27249,1.56927 0.34683,0.6639 1.71946,-0.96138 1.74502,-0.80386 0.18225,1.12304 -0.99976,1.23269 -2.34749,1.91385 -2.99499,1.51369 -0.64748,-0.40017 -2.34489,-0.95245 -3.77201,-1.22729 -1.92295,-0.37032 -2.38341,0.0511 -1.77843,1.62765 0.58352,1.52064 0.31599,1.81812 -0.93802,1.04309 -1.35242,-0.83582 -1.55038,-0.27144 -0.86403,2.46322 0.73553,2.93058 0.31291,3.81057 -2.4304,5.0605 -1.82641,0.83218 -3.05772,1.93863 -2.73625,2.45879 0.32148,0.52016 -0.74734,0.69739 -2.37514,0.39381 -1.62781,-0.30356 -4.15965,0.42762 -5.62632,1.62483 -1.46666,1.19721 -1.82396,1.73956 -0.79398,1.2052 1.16338,-0.60357 1.54164,-0.43593 0.99866,0.44261 -0.48069,0.7778 -2.08232,1.09819 -3.55916,0.71199 -2.14789,-0.56168 -2.50246,-0.22609 -1.77208,1.67724 0.62631,1.63212 0.42315,2.07663 -0.64685,1.41533 -0.93621,-0.57861 -1.55992,-0.13296 -1.55992,1.1146 0,1.14328 -0.6,2.0787 -1.33333,2.0787 -0.73334,0 -1.33334,-0.47143 -1.33334,-1.04762 0,-0.5762 -1.21485,-1.04762 -2.69968,-1.04762 -1.58206,0 -2.44029,0.67593 -2.07312,1.63278 0.37962,0.98926 -0.78976,1.79627 -2.96698,2.04762 -2.0357,0.235 -3.44591,1.14678 -3.25298,2.10324 0.22588,1.11978 -1.03714,1.58341 -3.7504,1.37668 -3.1654,-0.2412 -3.66848,-0.6232 -2.22354,-1.6884 z M 197.62357,299.66113 c -0.47916,-1.90913 -2.02039,-3.77166 -3.42494,-4.13897 -1.40456,-0.36729 -2.55374,-1.62399 -2.55374,-2.79264 0,-2.52485 -1.51968,-2.73848 -3.73334,-0.52483 -1.24444,1.24444 -1.6,1.11379 -1.6,-0.58797 0,-1.20339 0.6,-2.5588 1.33334,-3.01203 0.73333,-0.45322 1.33333,-2.05858 1.33333,-3.56745 0,-2.3134 -0.57473,-2.60799 -3.66667,-1.87936 -7.31357,1.72345 -7.66038,1.61023 -7.82038,-2.55319 -0.34596,-9.00216 -0.42532,-9.28762 -2.11295,-7.6 -2.80948,2.80948 -3.73333,1.74815 -3.73333,-4.28889 0,-3.23888 -0.67931,-6.11532 -1.50958,-6.39208 -1.04378,-0.34792 -0.83809,-1.80167 0.66667,-4.71156 2.65757,-5.13916 2.96724,-8.3318 0.57624,-5.9408 -3.23123,3.23123 -5.38815,1.85465 -4.81301,-3.07173 0.4683,-4.01147 0.20626,-4.5641 -1.85414,-3.91015 -2.9106,0.92379 -3.06465,-1.42261 -0.39952,-6.08479 2.58551,-4.52286 2.46094,-5.65933 -0.51673,-4.71425 -2.39416,0.75988 -2.50464,-0.12853 -2.26856,-18.24348 0.25293,-19.40687 0.90253,-22.32177 6.00331,-26.93789 3.16537,-2.86463 5.392,-1.91591 2.80873,1.19673 -1.1534,1.38976 -1.21347,2.03223 -0.19,2.03223 2.02511,0 1.80847,3.9324 -0.44053,7.99608 -1.20734,2.1815 -1.40002,3.86273 -0.55884,4.87626 0.8272,0.99672 0.73305,4.7917 -0.26474,10.67059 -0.85166,5.01805 -1.62893,9.72373 -1.72724,10.45707 -0.0983,0.73333 1.25482,1.13146 3.00692,0.88473 3.2837,-0.4624 3.40246,0.51621 0.82296,6.78193 -0.67028,1.62818 -0.33981,2.33334 1.09351,2.33334 1.24965,0 2.21931,1.43596 2.47599,3.66666 0.309,2.6855 1.26545,3.78603 3.57428,4.11271 2.90878,0.41157 3.08417,0.87523 2.26957,6 -0.48553,3.05468 -1.19079,6.79093 -1.56723,8.3028 -0.50646,2.03416 0.2294,3.16521 2.83035,4.35028 1.93311,0.88079 4.03631,1.27908 4.67377,0.88511 0.63747,-0.39398 1.34251,2.1484 1.56676,5.64973 0.34131,5.329 0.84212,6.37092 3.07439,6.39597 2.2644,0.0255 2.60605,0.79267 2.26485,5.08631 -0.3053,3.84195 0.57536,6.53163 3.66667,11.19867 4.51084,6.8101 4.53305,6.88622 2.80635,9.61556 -0.9623,1.52102 -1.40608,1.19428 -2.09252,-1.5407 z m 129.68799,2.18126 c -1.85529,-1.884 -1.01808,-5.36188 2.40212,-9.97866 2.53231,-3.41824 3.30858,-5.92032 3.03622,-9.78636 -0.30487,-4.3273 0.12866,-5.37693 2.59786,-6.29037 2.39156,-0.88469 2.9638,-2.13443 2.9638,-6.47268 0,-4.21524 0.50391,-5.38545 2.33334,-5.41869 1.28333,-0.0233 3.48533,-0.91406 4.89334,-1.97942 2.2956,-1.73693 2.42226,-2.69696 1.22631,-9.29502 -1.44568,-7.97592 -1.24728,-8.68316 2.43591,-8.68316 1.74204,0 2.44444,-0.99368 2.44444,-3.45816 0,-2.31896 0.86505,-3.68438 2.62598,-4.14487 2.47611,-0.64752 2.5077,-0.91549 0.5532,-4.69505 -1.34238,-2.5959 -1.616,-4.46511 -0.77648,-5.30463 0.83952,-0.83952 1.61199,-0.78555 2.19216,0.1532 0.49272,0.79723 1.53895,1.44951 2.32495,1.44951 1.43132,0 1.30183,-1.25447 -1.56907,-15.20018 -0.93213,-4.52796 -0.91088,-7.0566 0.0692,-8.23756 1.0154,-1.22348 0.82659,-2.84042 -0.66953,-5.73361 -2.66127,-5.14632 -2.631,-6.82865 0.12293,-6.82865 1.98443,0 1.96362,-0.26855 -0.20665,-2.66667 -1.47392,-1.62867 -1.78908,-2.66667 -0.80965,-2.66667 2.24313,0 7.52973,5.9672 9.49936,10.72228 1.25481,3.02939 1.3039,5.81331 0.20509,11.63023 -0.79453,4.20612 -1.02089,10.04749 -0.50304,12.98083 1.57771,8.93661 1.21431,12.02164 -1.39176,11.81481 -2.85123,-0.22628 -2.94276,1.65184 -0.32512,6.67093 2.58101,4.94887 2.52984,5.19806 -0.84744,4.12615 -2.56027,-0.81259 -2.77861,-0.48815 -2.22231,3.30219 0.69936,4.76505 -0.7982,6.41546 -3.66353,4.03745 -1.56951,-1.30257 -1.9416,-1.18001 -1.9416,0.63953 0,1.238 0.6462,3.45835 1.436,4.93411 0.78981,1.47576 1.00917,3.68632 0.48749,4.91235 -0.52168,1.22602 -0.94541,4.19165 -0.94162,6.59028 0.007,4.50554 -1.50023,6.70288 -2.96843,4.32728 -0.46064,-0.7453 -1.43751,-1.35508 -2.17084,-1.35508 -0.73333,0 -0.92105,0.66708 -0.41716,1.4824 0.50389,0.81533 0.17736,1.93902 -0.72564,2.4971 -1.28304,0.79296 -1.29337,1.66576 -0.0473,3.99408 2.16025,4.03648 0.1469,5.85116 -4.52222,4.07596 -7.48213,-2.8447 -8.22958,-1.95121 -5.17536,6.18651 0.38134,1.01604 -0.38834,1.3138 -2.18297,0.84449 -1.94413,-0.50841 -2.77199,-0.0952 -2.77199,1.3837 0,1.15973 -1.15809,2.7284 -2.57354,3.48592 -1.41546,0.75753 -2.76546,2.6356 -3,4.17349 -0.23455,1.53789 -0.87646,2.33921 -1.42646,1.78071 z m 21.66667,-1.07444 c 0,-0.27687 1.05,-1.32687 2.33333,-2.33334 2.11475,-1.65849 2.16191,-1.61133 0.50342,0.50342 -1.74183,2.221 -2.83675,2.9273 -2.83675,1.82992 z m -184.95216,-2.16326 c 0.28575,-1.1 -0.43313,-2.79449 -1.59749,-3.76554 -1.69639,-1.41474 -1.71964,-1.59379 -0.11707,-0.90112 1.33452,0.5768 1.23051,0.23309 -0.31261,-1.03296 -1.27193,-1.04356 -2.01825,-2.19174 -1.65849,-2.5515 0.35977,-0.35976 -0.6527,-1.80044 -2.24991,-3.20149 -1.59723,-1.40107 -2.46549,-1.79739 -1.92949,-0.88072 0.55014,0.94084 0.29193,1.66667 -0.59291,1.66667 -0.95695,0 -1.31691,-1.31071 -0.92417,-3.36516 0.62644,-3.27698 -0.60519,-4.96448 -3.99908,-5.47938 -0.91667,-0.13906 -1.66667,0.27524 -1.66667,0.92067 0,0.64543 -0.99843,0.79037 -2.21872,0.32211 -1.61101,-0.6182 -1.91979,-0.36771 -1.12733,0.91452 0.72618,1.17498 0.57628,1.44756 -0.44794,0.81456 -0.8466,-0.52326 -1.5393,-2.75136 -1.5393,-4.95136 0,-2.32715 0.55761,-3.65538 1.33333,-3.17596 0.73333,0.45322 1.33333,-0.32816 1.33333,-1.73642 0,-2.009 0.71459,-2.42386 3.3178,-1.92622 1.82479,0.34882 3.01607,1.12242 2.6473,1.7191 -0.36876,0.59668 0.54694,1.47127 2.0349,1.94354 1.48796,0.47226 2.38796,1.37226 2,2 -0.38796,0.62773 0.50332,1.52497 1.98064,1.99385 1.47732,0.46888 2.68603,1.74749 2.68603,2.84135 0,1.17896 0.63521,1.59625 1.55992,1.02476 1.04887,-0.64824 1.28099,-0.2372 0.70851,1.25465 -0.46827,1.22029 -0.28907,2.21872 0.39824,2.21872 0.6873,0 0.8665,0.99843 0.39824,2.21872 -0.60536,1.57753 -0.35932,1.91461 0.85136,1.16637 1.27582,-0.78852 1.46397,-0.30004 0.7504,1.94824 -0.64878,2.04411 -0.48179,2.70979 0.52382,2.08828 2.03174,-1.25568 1.77203,0.60154 -0.64024,4.57839 -1.11206,1.83333 -1.78814,2.43333 -1.5024,1.33333 z m 65.70454,-4.94249 c -0.72358,-1.90027 -0.57043,-2.05341 0.7464,-0.7464 0.91122,0.90445 1.32089,1.98032 0.91037,2.39084 -0.41052,0.41052 -1.15607,-0.32948 -1.65677,-1.64444 z m -0.92247,-18.72417 c -1.59492,-2.03368 -1.56501,-2.16211 0.23292,-1 1.13456,0.73333 0.95824,0.31584 -0.39183,-0.92776 -1.35006,-1.2436 -2.57834,-2.7436 -2.7295,-3.33334 -0.15116,-0.58973 -1.56028,-1.0414 -3.13139,-1.00369 -1.81437,0.0435 -2.61361,-0.56452 -2.19068,-1.66667 0.36623,-0.95437 -0.0625,-1.73521 -0.95277,-1.73521 -0.891,0 -1.27363,-0.89908 -0.85116,-2 0.4221,-1.1 0.20513,-2 -0.48218,-2 -0.6873,0 -0.8665,-0.99843 -0.39824,-2.21872 0.5686,-1.48176 0.33834,-1.90164 -0.69324,-1.26409 -1.00918,0.62372 -1.26938,0.23733 -0.7506,-1.1146 0.43674,-1.1381 0.1487,-2.06926 -0.64009,-2.06926 -0.78983,0 -1.05163,-0.99678 -0.58273,-2.21872 0.5686,-1.48176 0.33833,-1.90164 -0.69324,-1.26409 -1.00919,0.62372 -1.26939,0.23733 -0.7506,-1.1146 0.43984,-1.14621 0.0956,-2.06925 -0.77179,-2.06925 -0.98983,0 -1.23499,-1.04239 -0.66647,-2.83364 0.6052,-1.90686 0.41655,-2.53524 -0.57682,-1.92131 -0.92604,0.57232 -1.47618,-0.30608 -1.47618,-2.35704 0,-4.07285 1.93662,-4.82896 13.10906,-5.11815 l 8.89094,-0.23013 -8.66666,-0.92369 c -6.833,-0.72827 -5.2134,-0.89116 7.65496,-0.76987 14.59213,0.13752 16.32288,0.40108 16.33333,2.48716 0.007,1.28333 -0.56947,2.33333 -1.27979,2.33333 -0.7103,0 -0.90834,0.99843 -0.44008,2.21872 0.5686,1.48176 0.33834,1.90164 -0.69324,1.2641 -1.00918,-0.62372 -1.26938,-0.23734 -0.7506,1.1146 0.43786,1.14101 0.0967,2.06925 -0.76062,2.06925 -0.85507,0 -1.18386,0.6 -0.73063,1.33333 0.45323,0.73334 0.1244,1.33334 -0.73063,1.33334 -0.85506,0 -1.20932,0.9 -0.7872,2 0.42211,1.1 0.1863,2 -0.52401,2 -0.71032,0 -1.29149,-0.7 -1.29149,-1.55556 0,-0.85555 -0.34862,-1.20694 -0.7747,-0.78086 -0.42608,0.42608 -0.0663,2.09848 0.7997,3.71646 1.24785,2.33164 1.22669,2.72688 -0.102,1.9057 -1.21607,-0.75158 -1.46994,-0.24658 -0.92451,1.8391 0.41351,1.58133 0.2642,2.87516 -0.33183,2.87516 -0.59602,0 -0.74533,1.29382 -0.33181,2.87516 0.54747,2.0935 0.29345,2.59184 -0.93433,1.83302 -1.24211,-0.76765 -1.44935,-0.29582 -0.78686,1.79151 0.57136,1.8002 0.32362,2.83364 -0.67932,2.83364 -0.86828,0 -1.29948,1.06772 -0.95822,2.37271 0.34126,1.30498 -0.16343,3.10498 -1.12155,4 -2.25575,2.10717 -2.51572,2.06805 -4.69132,-0.70604 z m 2.07484,-21.09524 c 2.7744,-2.7744 2.64335,-4.99543 -0.46051,-7.80439 -5.03949,-4.56067 -11.33992,3.47063 -6.51092,8.29963 2.17302,2.17301 4.46608,2.01012 6.97143,-0.49524 z m 63.27069,22.42857 c -0.0868,-0.55 -0.0868,-1.45 0,-2 0.0868,-0.55 -0.48253,-1 -1.26529,-1 -0.81642,0 -1.06234,-1.13692 -0.57682,-2.66667 0.50695,-1.59726 0.2396,-2.66666 -0.66666,-2.66666 -0.93599,0 -1.17003,-1.08071 -0.61367,-2.83364 0.66249,-2.08734 0.45525,-2.55916 -0.78685,-1.79151 -1.22779,0.75881 -1.4818,0.26048 -0.93434,-1.83303 0.41352,-1.58133 0.14384,-2.87516 -0.59929,-2.87516 -0.74313,0 -1.0058,-0.9 -0.58368,-2 0.42211,-1.1 0.20513,-2 -0.48217,-2 -0.68731,0 -0.90428,-0.9 -0.48218,-2 0.42212,-1.1 0.12214,-2 -0.66666,-2 -0.78983,0 -1.05163,-0.99678 -0.58274,-2.21872 0.60536,-1.57753 0.35932,-1.91461 -0.85136,-1.16637 -1.27582,0.78852 -1.46397,0.30004 -0.7504,-1.94824 0.64368,-2.02807 0.47886,-2.70797 -0.50854,-2.09772 -0.91555,0.56584 -1.1645,0.1304 -0.66687,-1.16636 0.46149,-1.20264 0.0828,-2.06925 -0.90416,-2.06925 -0.93401,0 -1.30341,-0.3948 -0.82088,-0.87732 0.48252,-0.48254 0.20905,-1.68254 -0.60771,-2.66667 -1.19397,-1.43865 -0.57489,-1.78935 3.1588,-1.78935 2.55411,0 7.57758,-0.31096 11.16327,-0.69101 4.84347,-0.51337 5.83391,-0.35247 3.85276,0.62592 -1.97423,0.97496 -0.0832,1.26976 7.28225,1.13527 l 9.94892,-0.18166 0.16787,4.83392 c 0.1008,2.90372 -0.36195,4.5065 -1.15896,4.01392 -0.79921,-0.49394 -1.02783,0.32328 -0.57493,2.05515 0.41352,1.58133 0.22686,2.87516 -0.41479,2.87516 -0.64167,0 -0.82131,0.9 -0.3992,2 0.42212,1.1 0.0679,2 -0.7872,2 -0.85507,0 -1.18385,0.6 -0.73063,1.33333 0.45323,0.73334 0.20747,1.33334 -0.54613,1.33334 -0.7536,0 -1.02481,0.9 -0.60271,2 0.42212,1.1 0.0679,2 -0.7872,2 -0.85506,0 -1.18385,0.6 -0.73062,1.33333 0.45322,0.73333 0.20746,1.33333 -0.54614,1.33333 -0.7536,0 -0.99341,1.05 -0.53292,2.33334 0.4605,1.28333 0.37024,1.9119 -0.20057,1.39682 -0.57081,-0.51508 -1.91477,-0.0596 -2.9866,1.01226 -1.07181,1.07181 -2.59309,1.55054 -3.38061,1.06382 -0.84878,-0.52456 -1.04443,-0.25808 -0.48048,0.65442 0.52325,0.84664 0.28054,1.53934 -0.53935,1.53934 -0.81989,0 -1.18604,0.49298 -0.81365,1.0955 0.37237,0.60252 -0.49908,2.10252 -1.93656,3.33333 -2.87239,2.45941 -3.83528,2.75196 -4.07435,1.23784 z m 10.598,-24.85532 c 0.70823,-6.20419 -6.84012,-8.84393 -8.99219,-3.14468 -1.67813,4.44417 0.64979,7.91293 4.9751,7.41324 2.83342,-0.32733 3.66846,-1.21465 4.01709,-4.26856 z m -162.2116,11.18865 c 0.35307,-3.7023 -0.012,-5.33333 -1.19328,-5.33333 -0.93605,0 -1.7019,0.63541 -1.7019,1.41203 0,0.77661 -0.6,1.0412 -1.33334,0.58797 -0.73333,-0.45323 -1.33333,-0.28864 -1.33333,0.36576 0,0.65439 -0.75,1.1898 -1.66667,1.1898 -0.94117,0 -1.66666,-1.64445 -1.66666,-3.77779 0,-2.07777 0.46142,-3.77777 1.0254,-3.77777 0.56397,0 0.7015,-1.65 0.30562,-3.66667 -0.67313,-3.42901 -0.6211,-3.47834 0.80287,-0.7611 1.25988,2.4041 2.08319,2.69244 4.77059,1.67069 2.12717,-0.80876 2.96442,-0.77616 2.42636,0.0944 -0.45186,0.73112 -0.20498,1.32931 0.54862,1.32931 0.7536,0 0.98704,0.99842 0.51878,2.21872 -0.4846,1.26285 -0.30244,1.87945 0.42281,1.43122 0.73155,-0.45213 1.39595,2.01003 1.56003,5.78127 0.22886,5.25993 -0.14062,6.56879 -1.85435,6.56879 -1.69273,0 -2.03383,-1.115 -1.63155,-5.33334 z m 2.01563,-1.58333 c -0.42563,-1.06364 -0.74157,-0.74771 -0.80555,0.80556 -0.0579,1.40555 0.25723,2.19305 0.7003,1.75 0.44305,-0.44307 0.49041,-1.59307 0.1052,-2.55556 z m -8.11273,-13.88833 c -0.45131,-1.1761 -1.58694,-1.84427 -2.5236,-1.48483 -1.01094,0.38793 -1.70306,-0.36865 -1.70306,-1.86165 0,-1.38336 0.50684,-2.51519 1.12631,-2.51519 0.61947,0 0.75549,-0.6 0.30227,-1.33333 -0.45323,-0.73334 -0.15323,-1.33334 0.66666,-1.33334 0.8199,0 1.15156,-0.54876 0.73706,-1.21945 -0.41452,-0.67069 -0.0437,-1.45611 0.82404,-1.74536 2.93905,-0.97968 -0.4152,-3.94389 -3.56755,-3.15271 -2.06132,0.51736 -3.30981,0.0852 -3.85453,-1.33434 -1.15795,-3.01758 -1.00776,-3.49708 0.75424,-2.4081 1.04886,0.64824 1.28098,0.2372 0.7085,-1.25465 -0.46826,-1.22029 -0.23482,-2.21872 0.51878,-2.21872 0.7536,0 0.99936,-0.6 0.54613,-1.33333 -0.45323,-0.73334 -0.0387,-1.35242 0.92131,-1.37574 1.15928,-0.0281 0.96184,-0.63718 -0.58798,-1.81366 -2.57997,-1.95848 -3.12621,-4.8106 -0.9213,-4.8106 0.77661,0 1.0412,-0.6 0.58797,-1.33334 -0.45323,-0.73333 -0.15323,-1.33333 0.66667,-1.33333 0.81989,0 1.11989,-0.6 0.66666,-1.33333 -0.45322,-0.73334 -0.14464,-1.33334 0.68575,-1.33334 1.83645,0 1.19275,-4.06382 -0.68575,-4.32924 -3.17398,-0.44844 -4.3159,-2.96614 -2.15557,-4.75262 1.6652,-1.37704 1.70059,-1.58591 0.15557,-0.91814 -1.1,0.47543 -0.8,-0.1224 0.66667,-1.32856 1.46667,-1.20614 2.5018,-2.79524 2.30029,-3.53132 -0.20149,-0.73608 0.24851,-0.95832 1,-0.49386 0.75151,0.46445 1.36638,-0.0409 1.36638,-1.12312 0,-1.08218 -0.75,-2.2719 -1.66667,-2.64386 -1.25424,-0.50892 -1.17175,-1.02628 0.33333,-2.09069 1.1,-0.77793 1.4,-1.44185 0.66667,-1.47539 -0.73333,-0.0335 -0.27937,-0.67474 1.00881,-1.42493 1.93127,-1.12469 2.07315,-1.8666 0.8088,-4.22905 -1.15518,-2.1585 -1.1553,-2.9911 -5e-4,-3.37603 0.84306,-0.28103 1.1364,-1.1524 0.65185,-1.93641 -0.48649,-0.78718 -0.25935,-1.04127 0.50728,-0.56747 1.88059,1.16227 4.83625,-2.60745 3.91885,-4.99817 -0.68534,-1.78596 2.52622,-5.69647 4.30983,-5.2478 0.43729,0.11 0.63021,-0.3846 0.42871,-1.09911 -0.2015,-0.71451 0.2485,-0.91909 1,-0.45464 0.7515,0.46445 1.36637,-0.0556 1.36637,-1.15555 0,-1.1 -0.69271,-2.4281 -1.53935,-2.95136 -1.03165,-0.6376 -1.18701,-0.33374 -0.47105,0.92131 0.87956,1.54187 0.74128,1.56845 -0.78285,0.15049 -1.57654,-1.46672 -1.55611,-1.9087 0.13773,-2.97958 1.09387,-0.69156 1.43427,-1.26659 0.75644,-1.27782 -0.67784,-0.0107 0.15181,-1.49386 1.84365,-3.29474 1.69184,-1.8009 3.74643,-3.1509 4.56575,-3 0.96111,0.17698 1.63088,-3.26475 1.88763,-9.6998 0.29241,-7.32873 0.76305,-9.45055 1.77452,-8 1.03484,1.48407 1.17798,1.06391 0.57664,-1.69254 -0.50236,-2.30276 -0.24143,-3.66667 0.70148,-3.66667 0.82576,0 1.15602,-0.9 0.7339,-2 -0.4221,-1.1 -0.15089,-2 0.60271,-2 0.7536,0 0.99936,-0.6 0.54613,-1.33334 -0.45322,-0.73333 -0.15322,-1.33333 0.66667,-1.33333 0.81989,0 1.164,-0.52862 0.76469,-1.17472 -0.3993,-0.64609 1.32,-2.57666 3.82068,-4.29015 2.50068,-1.7135 4.24738,-3.59974 3.88155,-4.19166 -0.36583,-0.59191 -0.17053,-0.99029 0.43397,-0.88528 0.60451,0.10502 1.39911,0.0932 1.76578,-0.0263 2.97354,-0.96881 13.33333,-0.86838 13.33333,0.12927 0,0.69457 0.6,0.89204 1.33333,0.43881 0.73334,-0.4532 1.33334,-0.12442 1.33334,0.73065 0,0.85727 0.92824,1.19848 2.06925,0.76063 1.18656,-0.45533 1.72176,-0.2318 1.25464,0.52402 -0.71316,1.15391 -0.007,1.47767 2.74835,1.25956 0.4064,-0.0322 1.95212,1.31783 3.43492,3 1.4828,1.68217 2.27118,2.1585 1.75197,1.0585 -0.51923,-1.1 1.00148,0.1 3.37933,2.66666 2.37786,2.56667 3.53712,3.46667 2.57616,2 -0.96097,-1.46666 1.00191,-0.0611 4.36198,3.12343 6.40377,6.0693 7.20604,10.01223 2.29829,11.29563 -1.39988,0.36608 -2.28323,0.24164 -1.96297,-0.27652 0.32024,-0.51817 -0.64172,-1.70651 -2.1377,-2.64076 -2.23312,-1.39461 -2.55493,-1.38271 -1.79805,0.0665 0.50704,0.97081 -0.29589,0.2651 -1.78431,-1.56823 -1.48841,-1.83333 -3.37474,-3.33334 -4.19186,-3.33334 -0.81712,0 -2.70346,-1.5 -4.19187,-3.33334 -1.48841,-1.83336 -2.30964,-2.43336 -1.82496,-1.33336 0.48468,1.1 -0.1056,0.8 -1.31173,-0.66667 -1.20615,-1.46666 -2.75064,-2.51666 -3.43222,-2.33333 -0.68157,0.18333 -1.23922,-0.30208 -1.23922,-1.07869 0,-0.77661 -0.6,-1.0412 -1.33334,-0.58798 -0.73333,0.45323 -1.33333,0.30864 -1.33333,-0.32131 0,-0.62994 -2.06124,-1.14535 -4.58055,-1.14535 -2.61953,0 -4.23836,0.55366 -3.78128,1.29325 0.4506,0.72908 -0.10666,0.94559 -1.2775,0.49631 -2.25592,-0.86568 -8.34004,4.58662 -6.81731,6.10935 0.4956,0.4956 0.16568,0.90109 -0.73316,0.90109 -0.89884,0 -1.26343,0.6 -0.8102,1.33333 0.45323,0.73333 0.24481,1.33334 -0.46315,1.33334 -0.70796,0 -0.94885,1.29383 -0.53533,2.87517 0.41353,1.58133 0.20736,2.53962 -0.45816,2.12951 -0.69123,-0.42595 -1.21003,4.57599 -1.21003,11.6663 0,6.93834 0.48856,11.73217 1.10784,10.87049 0.62532,-0.87007 0.74723,0.10427 0.2799,2.23692 -0.59172,2.70032 -0.38292,3.50333 0.7318,2.8144 0.97405,-0.602 1.32568,-0.26844 0.93641,0.88828 -0.34284,1.01875 0.32933,2.64676 1.49369,3.61781 1.16436,0.97104 1.36703,1.38564 0.45036,0.92131 -2.72946,-1.38259 -1.92148,-0.0897 2.53955,4.06369 2.31343,2.15387 3.72072,3.07342 3.12732,2.04344 -0.72465,-1.25781 -0.57347,-1.5603 0.46045,-0.9213 2.6852,1.65954 1.83616,6.87081 -1.15613,7.09621 -1.667,0.1256 -2.34667,-0.36136 -1.78128,-1.27617 0.58077,-0.93971 0.15068,-1.18623 -1.17924,-0.6759 -1.15501,0.44323 -3.00357,-0.20233 -4.12371,-1.44008 -1.98796,-2.19666 -2.22029,-2.78845 -2.22029,-5.65544 0,-0.77661 -0.59313,-1.04544 -1.31807,-0.59741 -0.75581,0.46712 -0.97933,-0.0681 -0.52401,-1.25464 0.43673,-1.13809 0.14869,-2.06925 -0.64009,-2.06925 -0.78983,0 -1.05163,-0.99679 -0.58274,-2.21872 0.5686,-1.48176 0.33834,-1.90164 -0.69324,-1.2641 -1.00918,0.62372 -1.26938,0.23734 -0.7506,-1.1146 0.43984,-1.14621 0.0956,-2.06925 -0.77178,-2.06925 -0.94642,0 -1.23895,-1.02992 -0.7395,-2.60356 0.68322,-2.1526 0.29463,-2.5078 -2.24349,-2.05072 -2.96752,0.53441 -2.98357,0.48789 -0.48164,-1.39644 1.42349,-1.07211 1.99349,-1.94928 1.26667,-1.94928 -0.72683,0 -2.04151,0.72 -2.92151,1.6 -2.13696,2.13696 -2.08448,5.50065 0.0667,4.27248 0.91666,-0.52337 0.0915,0.79121 -1.83366,2.92131 -1.92517,2.13008 -3.24706,4.55721 -2.93753,5.39362 0.30955,0.83642 -0.96532,2.72278 -2.83301,4.1919 -3.25271,2.55858 -4.83315,5.33306 -2.06247,3.62069 2.73956,-1.69315 1.21391,3.09663 -1.66667,5.23245 -1.65,1.22342 -2.1,1.8521 -1,1.39708 1.7313,-0.71613 1.7267,-0.59008 -0.0341,0.93826 -2.39139,2.07557 -2.55993,5.91401 -0.23855,5.43221 2.31758,-0.481 1.97396,1.07113 -0.72726,3.28521 -1.52643,1.25115 -1.6417,1.6136 -0.33334,1.0481 1.1,-0.47544 0.34691,0.43236 -1.67353,2.01734 -2.02044,1.58498 -3.32296,3.44902 -2.89447,4.14232 1.51631,2.45344 3.04679,9.21496 1.92952,8.52444 -1.88885,-1.16736 -2.32073,2.35391 -0.79685,6.497 1.09632,2.98067 1.03971,4.03754 -0.23964,4.47454 -0.92124,0.31468 -1.33583,1.1209 -0.92131,1.7916 0.41451,0.67069 0.0743,1.21945 -0.75613,1.21945 -0.83037,0 -1.30779,1.04892 -1.06088,2.33093 0.24748,1.28508 1.63741,2.33202 3.09776,2.33334 1.73091,0.001 2.79652,1.04205 3.07493,3.0024 0.23434,1.65 -0.0657,3 -0.66666,3 -0.601,0 -1.09274,1.45 -1.09274,3.22222 0,1.77222 0.56436,3.12222 1.25415,3 0.68979,-0.12226 1.49745,0.89883 1.79484,2.26902 0.36493,1.68141 0.0192,2.16892 -1.06365,1.49969 -1.15848,-0.71597 -1.33968,-0.15761 -0.652,2.00907 0.71357,2.24828 0.52542,2.73676 -0.7504,1.94824 -1.21068,-0.74824 -1.45672,-0.41116 -0.85136,1.16637 0.46826,1.22029 0.33442,2.21872 -0.29744,2.21872 -0.63186,0 -1.51808,-0.96225 -1.96939,-2.13833 z m 0.53525,-33.11631 c 0,-0.32339 -0.6,-0.9588 -1.33333,-1.41203 -0.73334,-0.45322 -1.33334,-0.18864 -1.33334,0.58798 0,0.77661 0.6,1.41202 1.33334,1.41202 0.73333,0 1.33333,-0.26458 1.33333,-0.58797 z m 26.25732,-69.71999 c -0.33805,-1.29729 -0.63688,-0.5587 -0.66405,1.6413 -0.0272,2.2 0.24941,3.26141 0.61465,2.3587 0.36523,-0.9027 0.38745,-2.7027 0.0495,-4 z m 51.07601,-11.48539 c 0,-0.25301 -1.35,-1.60301 -3,-3.00001 l -3,-2.53998 2.53999,3 c 2.38696,2.81927 3.46001,3.607 3.46001,2.53999 z m 91.00001,100.87425 c 1.28334,-0.33536 3.38334,-0.33536 4.66667,0 1.28333,0.33537 0.23333,0.60977 -2.33333,0.60977 -2.56667,0 -3.61667,-0.2744 -2.33334,-0.60977 z m -63.25001,-1.32504 c 0.9625,-0.38516 2.1125,-0.3378 2.55556,0.1052 0.44306,0.44305 -0.34445,0.75818 -1.75,0.70029 -1.55326,-0.064 -1.8692,-0.37992 -0.80556,-0.80555 z m 41.25001,0.0277 c 0.91667,-0.36988 2.41667,-0.36988 3.33334,0 0.91666,0.36988 0.16666,0.67252 -1.66667,0.67252 -1.83333,0 -2.58333,-0.30264 -1.66667,-0.67252 z m 66.26295,-52.33641 c 0.41452,-0.6707 0.29993,-1.4207 -0.25464,-1.66667 -0.55457,-0.24597 0.43635,-1.94721 2.20204,-3.78055 1.76568,-1.83333 2.71255,-2.43333 2.10413,-1.33333 -0.71853,1.29911 -0.1024,1.11984 1.75822,-0.51153 1.57544,-1.38134 2.54054,-3.03558 2.14469,-3.67608 -0.39585,-0.64051 0.25277,-1.53775 1.4414,-1.99387 1.18863,-0.45611 1.84548,-1.65188 1.45969,-2.65724 -0.3858,-1.00533 -0.13912,-1.82791 0.54819,-1.82791 0.68731,0 0.86651,-0.99842 0.39824,-2.21872 -0.48327,-1.25938 -0.30197,-1.87916 0.41928,-1.4334 0.77183,0.47702 1.25339,-4.09818 1.22659,-11.65353 -0.0243,-6.84137 -0.55839,-12.1212 -1.18695,-11.73296 -0.62857,0.38824 -0.73813,-0.56925 -0.24349,-2.12775 0.58537,-1.84435 0.32492,-2.83364 -0.74604,-2.83364 -0.90498,0 -1.25474,-0.39068 -0.77724,-0.86817 0.47749,-0.47749 -0.17251,-1.72199 -1.44444,-2.76554 -1.46634,-1.20305 -1.58074,-1.5511 -0.31262,-0.95109 1.1,0.52046 0.35239,-0.76902 -1.66134,-2.86551 -2.79472,-2.90954 -4.925,-3.82864 -9,-3.88296 -2.93627,-0.0391 -5.33866,0.376 -5.33866,0.92253 0,0.54654 -0.83774,0.67223 -1.86166,0.27932 -1.02764,-0.39434 -2.81963,0.65331 -4,2.33852 -1.17608,1.6791 -2.14132,2.46941 -2.14496,1.75623 -0.004,-0.71317 -1.54704,0.50333 -3.42978,2.70333 -1.88273,2.2 -3.02924,3.10001 -2.54778,2 0.48146,-1.1 -0.82514,-0.1766 -2.90355,2.05201 -2.07841,2.22861 -3.47893,3.40033 -3.11227,2.60383 0.36667,-0.7965 -0.30885,-0.39541 -1.50114,0.8913 -1.1923,1.28671 -2.5423,1.96499 -3,1.50728 -0.45771,-0.4577 -0.83219,-0.26076 -0.83219,0.43765 0,0.69842 -1.05,1.26985 -2.33333,1.26985 -4.62959,0 -2.60354,-5.92789 4.26328,-12.4737 3.62813,-3.45852 5.81172,-5.08822 4.85241,-3.62155 -0.95931,1.46666 0.20132,0.56666 2.57917,-2 2.37786,-2.56667 3.8922,-3.76667 3.36522,-2.66667 -0.52699,1.1 0.34598,0.5 1.93992,-1.33333 1.59393,-1.83334 2.50778,-2.57878 2.03076,-1.65655 -0.68474,1.32381 -0.15656,1.35294 2.50916,0.13836 1.85705,-0.84613 2.99685,-2.15265 2.53288,-2.90337 -0.51175,-0.82802 0.0292,-1.03003 1.37514,-0.51354 1.2203,0.46827 2.21872,0.42024 2.21872,-0.10675 0,-0.52698 2.94271,-0.95815 6.53935,-0.95815 3.59664,0 6.30008,0.38713 6.00765,0.86028 -0.29242,0.47316 0.39603,1.21629 1.52991,1.6514 1.35501,0.51997 1.77548,0.22512 1.2268,-0.86029 -0.45913,-0.90827 0.0613,-0.55296 1.15644,0.78958 1.09519,1.34253 3.08968,3.33703 4.43221,4.43221 1.34254,1.09518 1.64668,1.58396 0.67588,1.08617 -1.44901,-0.74299 -1.46092,-0.41798 -0.0664,1.81488 0.93424,1.49597 2.17167,2.42759 2.74983,2.07027 0.57815,-0.35732 0.65609,0.37992 0.17321,1.63831 -0.62958,1.64066 -0.39624,1.99024 0.82479,1.23561 1.27583,-0.78851 1.46397,-0.30003 0.7504,1.94824 -0.5238,1.65034 -0.43617,2.6816 0.19471,2.29169 0.63089,-0.38991 0.93716,3.91335 0.68061,9.56279 -0.39712,8.74459 -0.1004,10.55968 1.99577,12.20863 2.30626,1.8142 2.33995,1.76796 0.53184,-0.72976 -1.06172,-1.46667 0.43828,-0.26667 3.33333,2.66666 5.21122,5.28012 6.12139,9.12976 2.48816,10.52396 -1.09876,0.42163 -1.51893,1.67348 -1.03789,3.09224 0.4792,1.41334 -0.177,1.02678 -1.61185,-0.94953 -1.33107,-1.83333 -3.05489,-3.77415 -3.83073,-4.31292 -0.98296,-0.6826 -0.9727,-0.98577 0.0339,-1 0.79446,-0.0107 1.44446,-0.92041 1.44446,-2.02041 0,-1.1 -0.83542,-2 -1.85647,-2 -1.06376,0 -1.45024,-0.65731 -0.90511,-1.53935 0.61171,-0.98976 0.36322,-1.17584 -0.69601,-0.5212 -0.99848,0.61709 -1.32117,2.31784 -0.81924,4.31772 0.57669,2.29772 0.36371,3.01255 -0.70147,2.35424 -1.06934,-0.66089 -1.24305,-0.0424 -0.57726,2.05525 0.71357,2.24828 0.52542,2.73676 -0.7504,1.94824 -1.21068,-0.74824 -1.45672,-0.41116 -0.85136,1.16638 0.46826,1.22029 0.23482,2.21872 -0.51878,2.21872 -0.7536,0 -0.99936,0.6 -0.54613,1.33333 0.45323,0.73333 0.0887,1.33333 -0.8102,1.33333 -0.89884,0 -1.32352,0.31074 -0.94373,0.69051 1.33754,1.33756 -8.10266,9.97616 -10.90188,9.97616 -1.5592,0 -2.49575,-0.54876 -2.08124,-1.21945 z m 15.0134,-35.09834 c -0.31892,-1.65854 -0.59197,-0.61554 -0.60677,2.31779 -0.0148,2.93333 0.24614,4.29033 0.57986,3.01555 0.33372,-1.27479 0.34583,-3.67479 0.0269,-5.33334 z m -6.27635,33.14775 c 0,-0.27687 1.05,-1.32687 2.33334,-2.33333 2.11474,-1.6585 2.1619,-1.61134 0.50341,0.50341 -1.74183,2.221 -2.83675,2.92731 -2.83675,1.82992 z M 181.29946,168.938 c -4.92193,-5.25423 -5.92972,-9.83439 -3.64476,-16.56458 2.55627,-7.52929 6.00228,-12.33928 8.87908,-12.39353 1.22221,-0.0231 2.45289,-0.73391 2.73483,-1.57971 0.59404,-1.78215 6.33305,1.49966 11.93234,6.8234 l 3.55607,3.38108 -3.91821,8.33334 c -2.2087,4.69752 -4.77823,8.33333 -5.88939,8.33333 -1.08416,0 -1.9712,-0.6 -1.9712,-1.33333 0,-0.73334 -0.6,-1.33334 -1.33333,-1.33334 -0.73334,0 -1.33334,0.91883 -1.33334,2.04184 0,1.12303 -0.9,2.38722 -2,2.80932 -1.1,0.42212 -2,1.60328 -2,2.62483 0,2.69439 -1.80272,2.28341 -5.01209,-1.14265 z m 159.67877,1.14265 c 0,-1.02155 -0.9,-2.20271 -2,-2.62483 -1.1,-0.4221 -2,-1.68629 -2,-2.80932 0,-1.12301 -0.6,-2.04184 -1.33333,-2.04184 -0.73334,0 -1.33334,0.6 -1.33334,1.33334 0,0.73333 -1.10898,1.33333 -2.46441,1.33333 -1.62936,0 -3.28755,-1.92011 -4.89364,-5.66667 -4.84936,-11.3121 -4.85697,-11.65789 -0.3402,-15.4585 5.82443,-4.90094 10.86465,-7.37563 11.44936,-5.62152 0.25911,0.77734 1.523,1.41336 2.80864,1.41336 3.14807,0 9.44025,12.6086 9.44025,18.91684 0,3.3032 -1.11466,6.20325 -3.45185,8.98085 -3.70483,4.40293 -5.88148,5.23376 -5.88148,2.24496 z m 29.69648,-28.80929 c 0,-3.3 0.26003,-4.65 0.57783,-3 0.31781,1.65 0.31781,4.35 0,6 -0.3178,1.65 -0.57783,0.3 -0.57783,-3 z m -144.36316,-3.17007 c 0,-2.17715 3.23526,-5.15024 4.36979,-4.0157 0.43511,0.43511 2.1634,-0.1701 3.84067,-1.3449 1.67725,-1.1748 4.05186,-2.136 5.2769,-2.136 1.22504,0 2.58858,-0.94138 3.0301,-2.09194 0.54121,-1.41039 1.69452,-1.8089 3.53996,-1.22318 1.50546,0.47782 3.63385,0.12462 4.72974,-0.78489 1.50922,-1.25253 2.36692,-1.27925 3.53602,-0.11016 1.9855,1.98551 5.69881,1.9687 8.91582,-0.0404 1.97883,-1.2358 3.72335,-1.19204 7.93868,0.19915 4.26081,1.40619 5.81631,1.43958 7.36053,0.15799 1.47544,-1.22451 2.64864,-1.25539 4.76027,-0.12528 1.54124,0.82485 3.90855,1.1486 5.26067,0.71946 1.50377,-0.47728 2.7508,-0.0183 3.21138,1.18199 0.41415,1.07924 1.8352,1.97912 3.15791,1.99971 4.88377,0.076 11.76719,1.86304 12.71783,3.30171 1.79174,2.71158 1.09626,5.01645 -1.31292,4.35106 -1.28334,-0.35444 -5.18334,-1.03164 -8.66667,-1.50488 -4.22216,-0.57358 -6.33333,-1.49986 -6.33333,-2.77871 0,-2.21117 -1.17616,-2.39843 -3.96955,-0.632 -1.35291,0.85552 -2.73297,0.55457 -4.40792,-0.96123 -2.11287,-1.91212 -2.82889,-1.96203 -5.36379,-0.37376 -4.13449,2.59051 -17.69427,3.00209 -19.68978,0.59765 -2.03817,-2.45586 -3.81257,-2.37681 -6.77231,0.30172 -1.99088,1.80173 -2.77506,1.88379 -4.48,0.46882 -1.69789,-1.40913 -2.35665,-1.36583 -3.69168,0.24261 -4.6366,5.58623 -16.95832,8.92938 -16.95832,4.60116 z m -63.69104,391.0032 c -0.19673,-1.9251 -2.43098,-8.2251 -4.96501,-14 -3.89833,-8.88406 -4.61269,-9.84762 -4.64229,-6.2617 -0.0192,2.33096 -0.91416,5.03096 -1.98872,6 -10.11731,9.12396 -10.81436,11.28486 -5.04627,15.64356 2.77139,2.09421 5.29445,2.69109 10.33333,2.44454 6.32779,-0.30961 6.64848,-0.50412 6.30896,-3.8264 z m -25.13354,-68.56905 c 0.45532,-1.18656 0.2318,-1.72176 -0.52402,-1.25464 -0.72493,0.44803 -1.31806,1.3792 -1.31806,2.06925 0,1.91791 0.95569,1.49528 1.84208,-0.81461 z"
       id="path351"
       transform="translate(-105.1956,-64.122765)" />
  </g>
</svg>
