<svg xmlns="http://www.w3.org/2000/svg"><path d="M12 156.27c31.295 0 39.119-129.092 78.237-129.092 35.207 0 31.295 121.268 74.325 121.268 43.031 0 43.031-121.268 86.061-121.268 43.031 0 35.207 129.092 82.149 129.092" stroke="#3076F6" stroke-width="23.471" stroke-linecap="square" stroke-linejoin="round"></path><path d="M469.102 82.367V151h-19.188V64.85h18.074l1.114 17.517Zm-3.105 22.374-6.529-.08c0-5.945.744-11.439 2.23-16.481 1.486-5.043 3.662-9.422 6.529-13.138 2.866-3.769 6.422-6.662 10.669-8.678 4.299-2.07 9.262-3.106 14.889-3.106 3.928 0 7.511.584 10.749 1.752 3.291 1.115 6.13 2.893 8.519 5.334 2.442 2.442 4.299 5.574 5.573 9.396 1.327 3.822 1.991 8.44 1.991 13.854V151h-19.189V95.266c0-4.194-.637-7.485-1.911-9.873-1.22-2.389-2.999-4.087-5.334-5.096-2.283-1.062-5.016-1.592-8.201-1.592-3.609 0-6.688.69-9.236 2.07a17.389 17.389 0 0 0-6.131 5.653c-1.592 2.388-2.76 5.149-3.503 8.28-.743 3.132-1.115 6.476-1.115 10.033Zm53.426-5.096-8.998 1.99c0-5.202.717-10.112 2.15-14.73 1.486-4.67 3.636-8.758 6.449-12.261 2.867-3.556 6.397-6.343 10.59-8.36 4.193-2.017 8.997-3.026 14.411-3.026 4.406 0 8.334.61 11.784 1.831 3.503 1.168 6.476 3.026 8.918 5.574 2.441 2.548 4.299 5.865 5.573 9.953 1.274 4.034 1.911 8.917 1.911 14.65V151h-19.268V95.186c0-4.353-.637-7.723-1.911-10.112-1.221-2.388-2.973-4.034-5.255-4.936-2.282-.956-5.016-1.433-8.201-1.433-2.972 0-5.6.557-7.882 1.672a15.63 15.63 0 0 0-5.653 4.538c-1.54 1.91-2.708 4.114-3.504 6.608-.743 2.495-1.114 5.202-1.114 8.122Zm110.513 52.947c-6.37 0-12.129-1.035-17.278-3.105-5.096-2.123-9.448-5.069-13.058-8.838-3.556-3.768-6.29-8.201-8.201-13.296-1.91-5.096-2.866-10.59-2.866-16.482v-3.185c0-6.741.982-12.845 2.946-18.312 1.964-5.468 4.698-10.139 8.201-14.013 3.503-3.928 7.644-6.927 12.421-8.998 4.777-2.07 9.952-3.105 15.526-3.105 6.157 0 11.545 1.035 16.163 3.105 4.618 2.07 8.439 4.99 11.465 8.759 3.079 3.715 5.361 8.147 6.847 13.296 1.54 5.15 2.309 10.829 2.309 17.039v8.201h-66.562V99.884h47.613V98.37c-.106-3.45-.796-6.688-2.07-9.714-1.221-3.025-3.106-5.467-5.653-7.325-2.548-1.858-5.945-2.787-10.192-2.787-3.185 0-6.024.69-8.519 2.07-2.442 1.328-4.486 3.265-6.131 5.813-1.646 2.548-2.919 5.626-3.822 9.236-.849 3.556-1.274 7.564-1.274 12.022v3.185c0 3.769.505 7.272 1.513 10.51 1.062 3.185 2.601 5.972 4.618 8.36 2.017 2.389 4.459 4.273 7.325 5.653 2.866 1.327 6.131 1.991 9.793 1.991 4.618 0 8.732-.929 12.342-2.787 3.609-1.858 6.741-4.485 9.395-7.882l10.112 9.793c-1.858 2.707-4.273 5.308-7.246 7.803-2.972 2.442-6.608 4.432-10.908 5.971-4.246 1.54-9.183 2.309-14.809 2.309Zm98.013-18.87V92.638c0-3.078-.558-5.733-1.673-7.962-1.114-2.23-2.813-3.954-5.095-5.175-2.23-1.221-5.043-1.831-8.44-1.831-3.132 0-5.839.53-8.121 1.592-2.283 1.062-4.061 2.495-5.335 4.3-1.274 1.804-1.911 3.848-1.911 6.13h-19.109c0-3.397.823-6.688 2.469-9.873 1.645-3.184 4.034-6.024 7.165-8.52 3.132-2.494 6.874-4.458 11.227-5.891 4.352-1.433 9.236-2.15 14.65-2.15 6.476 0 12.209 1.088 17.198 3.265 5.043 2.176 8.997 5.467 11.864 9.873 2.919 4.352 4.379 9.82 4.379 16.401v38.298c0 3.928.265 7.458.796 10.589.584 3.079 1.406 5.76 2.468 8.042V151h-19.666c-.903-2.07-1.619-4.698-2.15-7.882-.478-3.238-.716-6.37-.716-9.396Zm2.786-35.112.159 11.863H717.12c-3.556 0-6.688.345-9.395 1.035-2.707.637-4.963 1.593-6.768 2.867-1.805 1.274-3.158 2.813-4.06 4.618-.903 1.804-1.354 3.848-1.354 6.13 0 2.283.531 4.379 1.592 6.29 1.062 1.858 2.601 3.318 4.618 4.379 2.071 1.062 4.565 1.593 7.485 1.593 3.928 0 7.351-.796 10.271-2.389 2.972-1.645 5.308-3.636 7.006-5.971 1.699-2.389 2.601-4.645 2.707-6.768l6.211 8.519c-.637 2.177-1.725 4.512-3.265 7.007-1.539 2.495-3.556 4.883-6.051 7.166-2.441 2.229-5.387 4.06-8.838 5.494-3.397 1.433-7.325 2.149-11.783 2.149-5.627 0-10.643-1.114-15.049-3.344-4.405-2.282-7.856-5.334-10.35-9.156-2.495-3.875-3.743-8.254-3.743-13.137 0-4.565.85-8.599 2.548-12.103 1.752-3.556 4.3-6.529 7.644-8.917 3.397-2.389 7.537-4.194 12.421-5.414 4.883-1.274 10.456-1.911 16.72-1.911h15.048Zm55.575-15.367V151h-19.188V64.85h18.074l1.114 18.393Zm-3.423 21.498-6.211-.08c.053-6.104.903-11.704 2.548-16.8 1.699-5.096 4.034-9.475 7.007-13.137 3.025-3.663 6.635-6.476 10.828-8.44 4.193-2.017 8.864-3.026 14.013-3.026 4.141 0 7.883.584 11.227 1.752 3.397 1.115 6.29 2.946 8.678 5.494 2.442 2.548 4.3 5.865 5.574 9.952 1.274 4.034 1.911 8.997 1.911 14.89V151h-19.268V95.266c0-4.14-.611-7.405-1.832-9.794-1.167-2.441-2.893-4.166-5.175-5.175-2.229-1.062-5.016-1.592-8.36-1.592-3.291 0-6.237.69-8.838 2.07-2.601 1.38-4.804 3.264-6.609 5.653-1.751 2.388-3.105 5.149-4.06 8.28-.956 3.132-1.433 6.476-1.433 10.033ZM882.731 151h-19.268V59.277c0-6.953 1.38-12.819 4.14-17.596 2.813-4.777 6.821-8.413 12.022-10.908 5.255-2.495 11.492-3.742 18.711-3.742 4.247 0 8.334.451 12.262 1.354 3.981.902 8.095 2.043 12.341 3.423l-2.946 15.606c-2.707-.903-5.706-1.752-8.997-2.548-3.291-.85-7.086-1.274-11.386-1.274-5.786 0-10.059 1.327-12.819 3.981-2.707 2.601-4.06 6.502-4.06 11.704V151Zm17.277-86.15v14.014h-49.762V64.85h49.762Zm32.008 0V151h-19.189V64.85h19.189Zm40.447 18.393V151h-19.189V64.85h18.074l1.115 18.393Zm-3.424 21.498-6.21-.08c.053-6.104.902-11.704 2.548-16.8 1.698-5.096 4.034-9.475 7.006-13.137 3.026-3.663 6.635-6.476 10.829-8.44 4.193-2.017 8.864-3.026 14.013-3.026 4.145 0 7.885.584 11.225 1.752 3.4 1.115 6.29 2.946 8.68 5.494 2.44 2.548 4.3 5.865 5.57 9.952 1.28 4.034 1.91 8.997 1.91 14.89V151h-19.26V95.266c0-4.14-.61-7.405-1.84-9.794-1.16-2.441-2.89-4.166-5.17-5.175-2.23-1.062-5.017-1.592-8.361-1.592-3.291 0-6.237.69-8.837 2.07-2.601 1.38-4.804 3.264-6.609 5.653-1.752 2.388-3.105 5.149-4.061 8.28-.955 3.132-1.433 6.476-1.433 10.033Zm123.731 28.981V92.638c0-3.078-.56-5.733-1.67-7.962-1.12-2.23-2.82-3.954-5.1-5.175-2.23-1.221-5.04-1.831-8.44-1.831-3.13 0-5.84.53-8.12 1.592-2.28 1.062-4.06 2.495-5.33 4.3-1.28 1.804-1.91 3.848-1.91 6.13h-19.11c0-3.397.82-6.688 2.46-9.873 1.65-3.184 4.04-6.024 7.17-8.52 3.13-2.494 6.87-4.458 11.23-5.891 4.35-1.433 9.23-2.15 14.65-2.15 6.47 0 12.21 1.088 17.19 3.265 5.05 2.176 9 5.467 11.87 9.873 2.92 4.352 4.38 9.82 4.38 16.401v38.298c0 3.928.26 7.458.79 10.589.59 3.079 1.41 5.76 2.47 8.042V151h-19.66c-.91-2.07-1.62-4.698-2.15-7.882-.48-3.238-.72-6.37-.72-9.396Zm2.79-35.112.16 11.863h-13.78c-3.56 0-6.69.345-9.39 1.035-2.71.637-4.97 1.593-6.77 2.867-1.81 1.274-3.16 2.813-4.06 4.618-.9 1.804-1.36 3.848-1.36 6.13 0 2.283.53 4.379 1.6 6.29 1.06 1.858 2.6 3.318 4.61 4.379 2.07 1.062 4.57 1.593 7.49 1.593 3.93 0 7.35-.796 10.27-2.389 2.97-1.645 5.31-3.636 7.01-5.971 1.69-2.389 2.6-4.645 2.7-6.768l6.21 8.519c-.63 2.177-1.72 4.512-3.26 7.007-1.54 2.495-3.56 4.883-6.05 7.166-2.44 2.229-5.39 4.06-8.84 5.494-3.4 1.433-7.32 2.149-11.78 2.149-5.63 0-10.65-1.114-15.05-3.344-4.41-2.282-7.86-5.334-10.35-9.156-2.5-3.875-3.74-8.254-3.74-13.137 0-4.565.84-8.599 2.54-12.103 1.75-3.556 4.3-6.529 7.65-8.917 3.39-2.389 7.53-4.194 12.42-5.414 4.88-1.274 10.45-1.911 16.72-1.911h15.05Zm55.57-15.367V151h-19.19V64.85h18.08l1.11 18.393Zm-3.42 21.498-6.21-.08c.05-6.104.9-11.704 2.54-16.8 1.7-5.096 4.04-9.475 7.01-13.137 3.03-3.663 6.64-6.476 10.83-8.44 4.19-2.017 8.86-3.026 14.01-3.026 4.14 0 7.89.584 11.23 1.752 3.4 1.115 6.29 2.946 8.68 5.494 2.44 2.548 4.3 5.865 5.57 9.952 1.28 4.034 1.91 8.997 1.91 14.89V151h-19.27V95.266c0-4.14-.61-7.405-1.83-9.794-1.16-2.441-2.89-4.166-5.17-5.175-2.23-1.062-5.02-1.592-8.36-1.592-3.29 0-6.24.69-8.84 2.07-2.6 1.38-4.8 3.264-6.61 5.653-1.75 2.388-3.1 5.149-4.06 8.28-.95 3.132-1.43 6.476-1.43 10.033Zm110.35 32.564c3.13 0 5.95-.61 8.44-1.831 2.55-1.274 4.59-3.026 6.13-5.255 1.59-2.229 2.47-4.804 2.63-7.723h18.07c-.1 5.573-1.75 10.642-4.93 15.207-3.19 4.565-7.41 8.201-12.66 10.908-5.26 2.654-11.07 3.981-17.44 3.981-6.58 0-12.31-1.114-17.2-3.344-4.88-2.282-8.94-5.414-12.18-9.395s-5.68-8.572-7.32-13.774c-1.6-5.202-2.39-10.775-2.39-16.72v-2.787c0-5.945.79-11.519 2.39-16.72 1.64-5.255 4.08-9.873 7.32-13.855 3.24-3.98 7.3-7.086 12.18-9.315 4.89-2.282 10.59-3.424 17.12-3.424 6.9 0 12.95 1.38 18.15 4.14 5.21 2.708 9.29 6.503 12.27 11.386 3.02 4.83 4.59 10.457 4.69 16.88h-18.07c-.16-3.185-.96-6.051-2.39-8.6-1.38-2.6-3.34-4.67-5.89-6.21-2.5-1.539-5.49-2.309-9-2.309-3.87 0-7.08.797-9.63 2.389-2.55 1.54-4.54 3.663-5.97 6.37-1.44 2.654-2.47 5.653-3.11 8.997-.58 3.29-.87 6.714-.87 10.271v2.787c0 3.556.29 7.006.87 10.35.58 3.344 1.59 6.343 3.03 8.997a17.54 17.54 0 0 0 6.05 6.29c2.55 1.54 5.78 2.309 9.71 2.309Zm87.98 15.287c-6.37 0-12.13-1.035-17.28-3.105-5.09-2.123-9.44-5.069-13.05-8.838-3.56-3.768-6.29-8.201-8.2-13.296-1.92-5.096-2.87-10.59-2.87-16.482v-3.185c0-6.741.98-12.845 2.95-18.312 1.96-5.468 4.69-10.139 8.2-14.013 3.5-3.928 7.64-6.927 12.42-8.998 4.77-2.07 9.95-3.105 15.52-3.105 6.16 0 11.55 1.035 16.17 3.105 4.61 2.07 8.44 4.99 11.46 8.759 3.08 3.715 5.36 8.147 6.85 13.296 1.54 5.15 2.31 10.829 2.31 17.039v8.201h-66.57V99.884h47.62V98.37c-.11-3.45-.8-6.688-2.07-9.714-1.22-3.025-3.11-5.467-5.66-7.325-2.54-1.858-5.94-2.787-10.19-2.787-3.18 0-6.02.69-8.52 2.07-2.44 1.328-4.48 3.265-6.13 5.813-1.64 2.548-2.92 5.626-3.82 9.236-.85 3.556-1.27 7.564-1.27 12.022v3.185c0 3.769.5 7.272 1.51 10.51 1.06 3.185 2.6 5.972 4.62 8.36a21.978 21.978 0 0 0 7.32 5.653c2.87 1.327 6.13 1.991 9.8 1.991 4.61 0 8.73-.929 12.34-2.787 3.61-1.858 6.74-4.485 9.39-7.882l10.11 9.793c-1.85 2.707-4.27 5.308-7.24 7.803-2.97 2.442-6.61 4.432-10.91 5.971-4.25 1.54-9.18 2.309-14.81 2.309Z" fill="#fff"></path></svg>