<svg width="1920" height="1080" viewBox="0 0 1920 1080" xmlns="http://www.w3.org/2000/svg"><rect width="1920" height="1080" fill="#204a87"/><path d="M 0,1080 C 0,1080 0,270 0,270 C 37.12918660287082,228.4019138755981 74.25837320574163,186.80382775119617 221,189 C 367.74162679425837,191.19617224880383 624.0956937799042,237.18660287081343 827,242 C 1029.9043062200958,246.81339712918657 1179.3588516746413,210.44976076555022 1319,194 C 1458.6411483253587,177.55023923444978 1588.468899521531,181.01435406698565 1687,197 C 1785.531100478469,212.98564593301435 1852.7655502392345,241.49282296650716 1920,270 C 1920,270 1920,1080 1920,1080 Z" fill="#ad7fa8" opacity="0.15"/><path d="M 0,1080 C 0,1080 0,540 0,540 C 104.83253588516749,515.799043062201 209.66507177033498,491.5980861244019 311,490 C 412.334928229665,488.4019138755981 510.17224880382776,509.4066985645934 608,530 C 705.8277511961722,550.5933014354066 803.6459330143541,570.7751196172247 1007,568 C 1210.3540669856459,565.2248803827753 1519.2440191387561,539.4928229665072 1689,531 C 1858.7559808612439,522.5071770334928 1889.377990430622,531.2535885167464 1920,540 C 1920,540 1920,1080 1920,1080 Z" fill="#ad7fa8" opacity="0.3"/><path d="M 0,1080 C 0,1080 0,810 0,810 C 1.4832535885167601,828.2392344497607 2.9665071770335203,846.4784688995215 190,834 C 377.0334928229665,821.5215311004785 749.6172248803828,778.3253588516747 903,779 C 1056.3827751196172,779.6746411483253 990.5645933014355,824.2200956937799 1057,845 C 1123.4354066985645,865.7799043062201 1322.1244019138753,862.7942583732057 1488,853 C 1653.8755980861247,843.2057416267943 1786.9377990430623,826.6028708133972 1920,810 C 1920,810 1920,1080 1920,1080 Z" fill="#ad7fa8" opacity="0.44999999999999996"/></svg>